{"glyphs":{":":{"x_min":0,"x_max":126,"ha":126,"o":"m 60 246 q 53 248 51 252 q 49 257 49 260 q 49 263 50 266 q 54 273 58 274 q 62 274 62 274 q 70 274 75 269 q 78 265 78 263 q 78 261 78 260 q 78 256 76 253 q 73 249 70 247 q 66 245 63 245 q 62 245 60 246 z m 60 360 q 53 362 51 367 q 49 371 49 375 q 49 377 50 381 q 54 388 58 388 q 62 389 63 389 q 70 389 75 383 q 78 380 78 377 q 78 375 78 374 q 78 371 76 368 q 73 364 69 362 q 65 360 62 360 z"},"$":{"x_min":0,"x_max":480,"ha":480,"o":"m 261 2 q 255 4 251 21 q 249 34 246 61 q 243 88 241 116 q 241 122 240 127 q 240 131 240 132 q 240 133 240 133 q 239 133 239 134 q 238 134 236 134 q 235 134 234 133 l 218 133 q 190 133 171 139 q 156 143 147 152 q 143 156 142 158 q 141 160 141 162 l 141 163 q 142 165 143 165 q 145 166 146 166 l 146 166 q 147 166 148 165 q 149 164 150 163 q 151 162 153 161 q 160 153 173 150 q 185 147 208 147 q 214 147 221 147 q 229 147 233 148 q 238 148 239 149 q 239 149 239 151 q 239 153 239 158 l 239 180 q 238 184 238 188 q 238 209 238 229 q 238 250 238 277 q 238 282 239 287 q 239 304 239 312 q 239 320 239 323 q 239 326 239 326 q 236 327 192 331 q 147 335 125 340 q 103 344 87 353 q 57 367 50 394 q 49 400 49 406 q 49 413 49 415 q 49 422 50 428 q 56 456 79 490 q 119 548 186 599 q 219 624 252 640 q 257 643 260 645 q 263 646 264 646 q 264 646 264 652 q 265 658 267 667 q 275 725 282 745 q 290 768 299 770 q 300 771 302 771 q 304 771 306 770 q 309 769 311 765 q 312 763 312 757 q 312 751 310 738 q 309 725 304 700 l 300 674 q 298 665 298 663 l 297 659 l 305 661 q 320 666 332 667 q 343 668 349 668 q 357 668 364 667 q 370 666 376 664 q 383 662 388 659 q 393 657 398 651 q 404 645 407 640 q 415 628 415 608 q 415 584 404 550 q 389 499 355 417 q 351 407 349 402 q 348 397 348 395 q 347 392 347 390 q 347 388 346 387 q 345 386 344 385 q 343 383 340 383 l 339 383 q 336 383 333 385 q 332 387 332 388 q 331 389 331 391 q 331 393 332 395 q 332 396 333 400 q 335 403 338 410 q 341 417 346 428 l 347 430 q 386 516 399 581 q 401 590 401 602 q 401 613 399 619 q 394 642 370 648 q 366 649 363 649 q 359 650 352 650 q 339 650 328 648 q 317 646 302 641 q 297 639 295 638 q 293 638 293 637 q 293 635 291 623 q 290 612 288 597 q 286 582 284 569 q 279 534 274 494 q 269 454 266 422 q 265 413 264 400 q 263 388 262 375 q 261 363 261 354 l 260 346 l 265 345 q 269 344 275 342 q 339 330 378 310 q 421 288 430 262 q 431 258 431 256 q 432 253 432 248 q 432 240 430 235 q 429 230 426 224 q 408 192 360 167 q 312 142 260 136 q 258 135 257 135 q 255 135 255 134 q 255 134 255 124 q 255 115 256 102 q 256 88 257 77 q 260 31 264 18 q 265 16 265 14 q 266 13 266 13 q 267 13 268 12 q 271 11 272 9 q 272 7 272 7 q 272 4 270 2 q 269 1 267 1 q 265 1 265 1 q 263 1 261 2 z m 240 358 q 240 361 240 366 q 241 372 241 378 q 241 382 241 386 q 246 488 259 602 q 260 613 260 619 q 261 622 261 623 q 261 623 260 623 q 259 623 258 622 q 256 622 253 620 q 182 580 127 521 q 90 480 78 447 q 70 430 70 416 q 70 382 118 370 q 139 364 174 358 q 235 349 238 349 l 240 349 z m 268 153 q 324 167 370 201 q 376 206 384 213 q 392 221 396 226 q 406 240 406 252 q 406 266 384 283 q 353 304 294 317 q 287 319 279 320 q 271 322 267 322 q 262 323 260 323 l 259 323 l 259 322 q 259 321 259 318 q 258 314 258 309 q 258 304 257 295 q 257 286 256 272 q 255 259 255 236 q 254 212 254 197 q 254 181 254 174 l 254 163 l 255 150 l 257 151 q 258 151 261 152 q 264 153 268 153 z"},"?":{"x_min":0,"x_max":392,"ha":392,"o":"m 237 66 q 226 68 222 96 q 221 102 221 115 q 221 129 221 143 q 221 157 222 165 q 225 199 235 250 q 244 300 263 385 q 296 534 305 601 q 309 622 310 635 q 311 647 311 664 l 311 674 q 311 684 311 689 q 310 698 308 705 q 301 729 281 731 l 279 731 q 242 731 189 678 q 125 614 90 527 q 74 486 69 459 q 64 432 64 418 q 64 404 67 395 q 68 392 69 390 q 70 389 72 388 q 75 387 77 385 q 79 384 80 381 q 81 378 81 376 q 81 374 79 371 q 76 367 73 366 q 70 366 69 366 q 65 366 61 369 q 59 372 56 378 q 53 384 51 390 q 49 396 49 405 q 49 413 49 417 q 49 425 49 431 q 62 531 140 636 q 212 731 273 747 q 277 747 281 747 l 286 747 q 292 747 298 746 q 333 738 341 688 q 342 685 342 682 q 343 678 343 673 q 343 668 343 659 q 343 643 342 632 q 341 621 338 603 q 329 542 299 430 q 273 334 263 291 q 252 248 246 213 q 235 155 235 118 q 235 101 238 88 l 238 87 q 239 83 239 82 q 240 80 241 79 q 242 79 244 79 q 246 79 247 79 q 248 78 249 77 q 250 75 251 74 q 251 73 251 73 q 251 72 250 71 q 249 67 246 66 q 243 65 241 65 q 239 65 237 66 z m 237 -47 q 230 -45 228 -41 q 226 -37 226 -33 q 226 -30 228 -27 q 231 -19 236 -19 q 240 -19 241 -19 q 247 -19 252 -24 q 254 -27 255 -30 q 255 -33 255 -34 q 255 -37 253 -40 q 251 -44 247 -46 q 243 -47 239 -47 z"},"<":{"x_min":0,"x_max":219,"ha":219,"o":"m 124 227 q 118 232 108 241 q 101 247 95 252 q 86 259 78 266 q 70 273 66 277 q 56 288 52 294 q 49 300 49 307 l 49 310 q 49 316 53 324 q 57 333 70 349 q 83 366 108 398 q 120 414 127 422 q 134 430 138 434 q 142 438 145 439 q 148 440 152 440 q 157 440 161 438 q 169 434 170 424 q 170 421 170 419 q 169 417 168 416 q 167 412 161 408 q 156 403 143 394 q 125 382 113 372 q 101 362 88 350 q 63 325 59 313 q 58 310 58 307 q 58 303 60 300 q 63 289 95 262 q 101 256 110 248 q 119 240 127 232 q 135 225 137 223 q 138 222 138 221 l 138 220 q 138 218 136 217 q 135 217 132 219 q 129 222 124 227 z"},"'":{"x_min":0,"x_max":201,"ha":201,"o":"m 50 572 q 49 574 49 574 q 49 575 55 584 q 61 594 76 616 q 94 643 102 656 q 110 670 116 681 q 118 685 120 688 q 122 691 123 693 q 128 698 135 698 q 142 698 147 693 q 152 689 152 685 q 152 682 151 680 q 150 678 148 676 q 146 673 141 669 q 106 640 68 588 q 62 581 59 576 q 55 572 54 571 q 54 571 53 571 q 51 571 50 572 z"},"=":{"x_min":0,"x_max":299,"ha":299,"o":"m 58 346 q 54 347 52 351 q 49 355 49 360 q 50 368 55 371 l 56 373 q 57 373 58 373 q 59 373 62 373 q 64 373 69 373 q 73 374 79 374 q 86 374 96 373 q 105 373 118 373 q 131 373 148 373 l 159 373 q 195 373 220 373 q 246 373 248 372 q 250 372 250 370 q 250 369 250 368 l 250 366 l 233 365 q 146 363 83 350 q 71 347 67 346 q 63 346 62 346 q 60 346 58 346 z m 58 285 q 54 286 52 290 q 49 294 49 300 q 50 307 55 311 q 55 311 56 311 q 56 312 56 312 q 57 312 58 312 q 59 312 60 312 q 62 312 65 312 q 69 312 74 312 q 79 312 86 312 q 93 312 102 312 q 112 312 124 312 q 137 312 152 312 l 159 312 q 209 312 235 312 l 248 312 q 250 311 250 309 q 250 308 250 307 l 250 305 l 233 305 q 146 302 83 289 q 71 286 67 285 q 63 285 62 285 q 60 285 58 285 z"},"a":{"x_min":0,"x_max":422,"ha":422,"o":"m 205 208 q 124 222 96 333 q 95 338 94 344 q 92 350 92 354 q 91 357 91 360 q 90 362 90 362 q 89 362 87 356 q 85 349 82 338 q 78 324 73 311 q 68 297 65 289 q 45 240 23 240 q 9 240 0 258 q -9 276 -9 290 q -10 304 -10 306 q -10 331 -1 356 q 12 398 41 413 q 47 416 52 417 q 56 417 59 417 l 63 417 q 77 417 85 405 l 88 402 l 88 406 q 90 419 98 422 q 100 423 103 423 q 109 423 112 417 q 114 413 115 408 q 115 402 115 396 q 115 391 115 382 l 115 371 q 115 354 116 341 q 117 324 122 309 q 140 239 196 221 q 211 216 229 216 q 247 216 267 221 q 284 227 303 236 q 342 255 385 298 q 409 323 422 340 l 423 341 q 427 346 428 347 q 429 349 430 349 l 431 349 q 432 349 432 347 q 432 345 427 338 q 414 320 394 300 q 375 279 356 264 q 300 217 244 209 q 236 208 228 208 q 220 208 217 208 q 209 208 205 208 z m 32 254 q 49 263 64 305 q 71 322 77 340 q 83 359 84 367 q 85 372 85 379 q 84 385 83 389 q 81 400 71 401 l 70 401 q 62 401 53 391 q 32 370 20 331 q 16 320 14 311 q 13 303 13 292 l 13 285 q 13 263 21 255 q 23 252 25 252 q 26 252 27 252 q 29 252 32 254 z"},"L":{"x_min":0,"x_max":542,"ha":542,"o":"m 124 -89 q 63 -77 26 46 q 4 125 -5 237 q -7 264 -8 290 q -9 316 -10 352 l -10 365 q -10 529 13 695 q 18 729 21 746 q 25 764 31 774 q 39 790 51 790 l 53 790 q 61 790 65 784 q 67 782 68 780 q 69 777 69 773 q 69 769 68 761 q 68 751 67 747 q 66 743 65 743 q 64 742 60 724 q 56 707 51 681 q 46 655 41 629 q 36 603 33 583 q 16 477 11 372 q 10 359 10 339 q 10 319 10 306 l 10 280 q 10 253 11 241 q 19 91 53 5 q 56 -3 62 -15 q 68 -26 72 -33 q 95 -70 124 -77 q 128 -78 134 -78 l 139 -78 q 147 -78 155 -76 q 176 -70 205 -46 q 214 -39 226 -29 q 237 -18 260 3 q 328 68 374 106 q 419 145 463 172 q 479 183 489 188 q 499 193 506 196 q 510 197 511 197 q 513 198 514 198 q 515 198 517 197 q 522 195 522 191 q 522 189 521 188 q 519 183 505 179 q 468 168 411 125 q 356 85 272 3 q 235 -33 219 -48 q 202 -63 188 -71 q 160 -90 135 -90 q 129 -90 124 -89 z"},"3":{"x_min":0,"x_max":354,"ha":354,"o":"m 58 -16 q 53 -16 47 -14 q 42 -12 38 -10 q 36 -9 32 -6 q 28 -2 25 0 q 22 3 21 5 q 21 6 21 7 q 21 9 22 11 q 24 12 25 12 q 26 12 27 12 q 28 12 30 11 q 31 10 32 9 q 34 6 39 3 q 43 0 47 -1 q 49 -2 52 -3 q 55 -3 59 -4 l 64 -4 q 102 -4 159 24 q 237 64 285 142 q 288 146 292 155 q 293 158 295 161 q 315 201 317 243 q 318 249 318 255 q 318 290 303 319 q 295 335 282 348 q 256 372 217 378 q 208 380 193 380 q 178 380 169 379 q 132 374 85 354 q 69 346 60 343 q 52 340 49 339 q 45 338 43 338 l 41 338 q 28 340 25 354 l 25 355 q 25 358 26 361 q 27 365 30 368 q 31 370 36 375 q 42 380 49 385 q 84 414 125 451 q 167 488 202 524 q 222 544 232 555 q 243 567 255 582 q 286 619 300 646 q 305 657 306 663 q 308 669 308 676 q 308 680 308 682 q 308 684 308 686 q 307 687 306 689 q 298 705 271 706 q 267 707 264 707 q 244 707 217 697 q 175 683 131 655 q 88 628 56 596 q 40 580 35 568 q 31 562 31 559 q 31 557 32 557 q 35 554 35 552 q 36 549 36 548 q 36 546 35 544 q 32 540 30 539 q 27 539 25 539 q 23 539 20 541 q 15 543 15 552 q 15 573 43 601 q 67 625 103 649 q 138 673 174 690 q 232 717 271 717 q 282 717 292 714 q 297 713 302 710 q 308 708 312 705 q 328 691 328 669 q 328 666 327 663 q 323 627 286 577 q 246 521 114 403 q 110 400 107 397 q 102 393 99 390 l 96 387 l 96 387 q 97 387 100 388 q 111 390 129 393 q 147 396 161 398 q 171 399 186 399 q 201 399 211 398 q 259 392 292 364 q 340 321 340 250 l 340 240 q 333 151 260 77 q 205 19 133 -4 q 96 -17 70 -17 q 63 -17 58 -16 z"},";":{"x_min":0,"x_max":140,"ha":140,"o":"m 51 188 q 50 188 50 190 q 50 191 52 193 q 60 201 65 212 q 71 224 72 232 q 72 236 72 238 q 72 240 70 242 q 69 246 65 249 q 56 256 55 261 q 54 263 54 265 q 54 271 59 274 q 62 277 66 277 q 69 277 73 276 q 76 274 80 270 q 84 266 87 262 q 91 253 91 245 q 91 237 89 230 q 84 214 68 198 q 57 187 53 187 q 52 187 51 188 z m 60 360 q 53 362 51 367 q 49 371 49 375 q 49 377 50 381 q 54 388 58 388 q 62 389 63 389 q 70 389 75 383 q 78 380 78 375 q 78 372 76 368 q 74 364 70 362 q 65 360 62 360 z"},"J":{"x_min":0,"x_max":715,"ha":715,"o":"m 360 -68 q 299 -60 269 12 q 255 48 255 96 l 255 105 q 255 120 256 131 q 257 142 259 156 q 284 292 379 409 q 405 439 436 469 q 466 498 490 514 q 492 515 494 516 q 495 518 495 518 q 495 519 493 526 q 491 534 488 543 q 484 553 481 561 q 467 601 448 642 q 445 648 438 663 q 431 677 414 711 q 408 722 403 732 l 400 737 q 396 746 395 746 l 388 746 q 372 746 336 745 q 291 743 248 740 q 222 738 188 735 q 155 732 129 730 q 121 729 115 728 q 109 728 102 727 q 90 725 59 722 q 35 719 25 718 q 15 717 8 717 q 0 717 -3 719 q -7 720 -9 725 q -10 727 -10 728 q -10 729 -9 731 q -8 735 -6 737 q -3 740 3 742 q 21 748 47 750 q 51 751 55 751 q 59 752 61 752 q 62 752 64 752 q 66 752 68 751 q 71 751 73 749 q 76 746 77 743 q 77 741 78 741 q 79 740 81 740 q 82 740 93 741 q 104 742 120 743 q 234 751 336 753 l 350 753 q 360 754 363 754 l 382 754 q 386 754 389 754 q 392 754 393 755 q 394 755 395 755 q 395 755 395 756 q 398 766 405 768 q 408 768 410 768 q 414 768 417 767 q 419 765 423 762 q 426 759 427 756 q 427 756 428 756 q 428 755 430 755 q 431 755 434 755 q 437 755 441 755 q 445 755 452 755 q 458 755 467 754 l 471 754 q 510 754 550 753 q 589 752 647 751 q 689 750 714 749 q 739 748 751 747 q 764 747 771 747 q 777 747 783 748 q 792 748 798 748 l 803 748 q 808 748 811 745 q 813 742 813 739 l 813 737 q 812 733 808 730 q 805 729 804 729 q 803 730 800 730 q 798 730 795 731 q 792 731 785 732 q 780 733 775 734 q 763 736 751 737 q 739 738 722 740 q 690 742 645 744 q 599 746 558 747 q 548 747 529 747 q 509 748 487 748 q 465 748 450 748 q 435 748 434 747 q 434 746 435 744 q 437 740 439 734 q 483 645 512 544 q 514 539 515 535 l 517 531 q 517 531 520 532 q 523 534 528 536 q 534 539 538 541 q 542 542 543 543 q 545 543 545 543 q 547 543 547 543 q 548 542 548 542 l 547 541 q 547 540 543 538 q 539 535 533 533 l 532 532 q 526 529 522 527 q 518 525 518 525 l 518 524 q 518 523 519 521 q 520 516 521 510 q 549 392 549 285 q 549 211 536 143 q 512 31 454 -28 q 447 -35 437 -42 q 427 -50 419 -54 q 392 -68 367 -68 z m 383 -58 q 434 -48 474 12 q 522 85 532 212 q 533 229 533 249 q 534 268 534 276 q 534 293 533 305 q 528 404 502 497 l 498 513 l 495 511 q 493 510 487 505 q 481 501 475 496 q 469 492 466 488 q 417 446 377 398 q 302 302 274 190 q 263 143 263 103 q 263 60 275 24 q 297 -38 343 -55 q 355 -59 369 -59 q 375 -59 383 -58 z"},"V":{"x_min":0,"x_max":644,"ha":644,"o":"m 187 -127 q 138 -120 98 -40 q 32 94 2 373 q -1 409 -4 453 q -5 460 -5 468 q -6 471 -6 474 q -7 494 -8 528 q -9 562 -10 593 l -10 600 q -10 716 5 747 q 11 759 18 761 q 24 763 27 763 q 34 763 40 759 q 46 755 47 744 q 47 741 48 731 q 48 721 48 709 q 48 697 48 687 q 48 677 48 675 q 49 673 49 672 q 49 671 48 670 q 48 668 47 667 q 44 661 40 661 q 39 661 37 662 q 37 662 36 662 q 35 663 35 663 q 34 663 34 661 q 33 660 33 656 q 33 653 32 646 l 32 642 q 26 566 26 486 q 26 456 27 424 q 27 410 27 402 q 27 395 28 386 q 28 383 28 380 q 28 378 29 374 q 29 370 29 365 l 29 361 q 31 337 34 305 q 37 274 40 247 q 64 63 113 -37 q 130 -72 150 -91 q 166 -107 182 -112 q 188 -114 196 -114 q 203 -114 210 -112 q 271 -95 335 50 q 373 136 418 282 q 462 429 496 577 q 513 653 523 722 q 525 741 526 751 q 527 762 527 776 q 528 784 528 789 q 528 795 527 799 q 527 807 525 812 q 523 816 523 818 q 523 820 525 822 q 527 826 530 827 q 533 828 534 828 q 537 828 540 826 q 543 824 544 820 q 546 816 546 809 q 546 806 546 803 q 546 799 545 794 q 544 788 543 778 q 537 736 530 697 q 528 688 527 682 q 526 675 525 673 q 525 671 524 664 q 522 657 521 648 q 519 640 518 633 q 517 626 516 625 q 516 624 515 621 q 514 617 514 613 q 513 609 512 606 q 511 602 511 600 q 510 598 509 595 q 508 592 508 589 q 490 512 462 411 q 461 405 460 400 q 458 395 458 395 q 457 390 452 373 q 448 356 442 337 q 437 317 433 304 q 384 142 346 51 q 309 -40 270 -84 q 264 -91 256 -99 q 248 -107 241 -111 q 220 -126 198 -127 q 194 -127 191 -127 q 188 -127 187 -127 z"},"\"":{"x_min":0,"x_max":244,"ha":244,"o":"m 50 605 q 49 607 49 608 q 49 608 52 614 q 55 619 60 625 q 74 647 83 662 q 83 664 87 670 q 88 674 90 677 q 95 688 99 692 q 102 697 105 698 q 109 699 113 699 q 117 699 121 696 q 125 693 125 688 q 125 686 125 683 q 124 680 120 677 q 117 673 109 666 q 94 653 69 623 q 65 617 61 613 q 57 608 56 607 q 55 605 53 605 q 52 605 52 605 q 51 605 50 605 z m 93 572 q 92 574 92 574 q 92 575 98 584 q 104 594 119 616 q 137 643 145 656 q 153 670 159 681 q 161 685 163 688 q 165 691 166 693 q 171 698 178 698 q 185 698 191 693 q 195 689 195 684 q 195 682 194 680 q 194 678 192 676 q 189 673 184 669 q 150 640 111 588 q 105 581 102 576 q 98 572 98 571 q 97 571 96 571 q 95 571 93 572 z"},"7":{"x_min":0,"x_max":434,"ha":434,"o":"m 82 -19 q 72 -15 72 3 q 72 13 76 28 q 83 65 107 118 q 131 171 180 258 q 184 266 187 271 q 190 277 191 280 q 193 283 196 289 l 204 302 q 208 309 210 312 q 212 315 217 325 q 223 334 229 346 q 236 356 242 366 q 247 375 249 378 q 250 381 255 389 q 260 397 265 407 q 271 416 276 424 q 280 433 282 436 q 389 615 394 663 q 396 669 396 674 q 396 687 388 695 q 379 705 358 707 q 353 707 347 707 q 312 707 253 688 q 216 675 178 659 q 140 643 81 614 q 54 601 40 594 q 26 587 20 585 q 14 583 10 583 q 4 583 2 586 q 0 588 0 591 q 0 592 0 593 q 2 597 11 604 q 20 610 29 616 q 39 621 42 621 q 49 621 49 616 l 49 613 l 51 614 q 53 615 62 619 q 68 622 74 625 q 122 647 150 660 q 179 672 205 682 q 304 720 356 720 q 371 720 381 717 q 404 710 414 694 q 417 687 418 681 q 419 676 419 665 q 419 656 419 652 q 418 648 417 642 q 415 633 411 621 q 407 608 403 600 q 397 586 394 578 q 390 569 384 559 q 358 505 281 383 q 215 279 193 241 q 191 238 190 235 q 188 232 187 230 q 186 229 183 224 q 181 219 178 213 q 175 209 172 205 q 168 198 167 195 q 164 190 157 178 q 151 166 144 153 q 137 140 133 131 q 110 85 97 44 q 88 19 88 6 l 88 2 q 88 -5 89 -6 q 90 -6 91 -6 q 93 -6 98 -4 q 100 -3 102 -2 q 104 -1 105 -1 q 107 -1 109 -3 q 111 -5 111 -7 q 111 -9 110 -11 q 109 -12 105 -15 q 97 -20 89 -20 q 85 -20 82 -19 z"},"S":{"x_min":0,"x_max":664,"ha":664,"o":"m 297 -136 q 257 -127 248 -90 q 246 -81 246 -70 q 246 -5 311 84 q 383 179 468 232 q 469 233 470 233 q 472 235 473 235 l 473 236 q 473 237 472 237 q 470 239 466 241 l 462 243 q 418 270 344 287 q 324 292 298 296 q 272 300 228 307 q 175 314 145 320 q 115 326 96 333 q 4 362 -8 435 q -10 443 -10 451 q -10 460 -10 463 q -10 472 -9 479 q 1 538 45 605 q 103 690 192 758 q 299 836 377 836 q 420 836 445 812 q 469 789 476 745 q 477 736 477 718 q 478 701 477 688 q 474 650 463 596 q 460 580 458 568 q 455 556 451 537 q 446 519 438 486 q 432 458 430 446 q 428 434 428 430 l 428 429 q 428 428 428 426 q 429 425 430 424 q 431 421 431 418 q 431 417 430 415 q 428 411 422 411 q 416 411 412 417 q 412 417 411 418 q 411 419 411 422 q 411 424 411 427 q 411 432 411 434 q 411 437 412 441 q 414 445 416 454 q 426 490 431 508 q 436 526 440 543 q 465 648 465 708 q 465 716 465 722 q 461 783 428 804 q 410 817 384 817 q 362 817 333 807 q 241 776 145 681 q 49 584 25 494 q 23 484 22 476 q 21 468 21 458 q 21 422 42 398 q 61 377 98 363 q 120 355 149 348 q 179 342 228 333 q 318 319 368 306 q 418 292 456 273 q 469 267 476 263 q 483 259 495 250 q 505 243 513 237 q 521 230 528 222 q 566 179 566 128 q 566 84 542 36 q 517 -12 472 -57 q 388 -135 312 -137 q 308 -137 304 -136 q 300 -136 297 -136 z m 319 -125 q 358 -122 403 -91 q 438 -67 468 -32 q 514 21 532 78 q 540 103 540 126 l 540 132 q 539 146 536 156 q 534 167 527 179 q 514 207 485 229 l 480 232 l 476 229 q 471 227 463 221 q 454 216 447 210 q 363 146 303 58 q 273 10 262 -33 q 259 -43 258 -50 q 257 -57 257 -64 l 257 -71 q 258 -82 259 -87 q 260 -92 264 -99 q 273 -118 295 -124 q 302 -125 307 -125 q 312 -125 319 -125 z"},"}":{"x_min":0,"x_max":292,"ha":292,"o":"m 152 832 q 179 829 195 805 q 213 776 213 724 q 213 707 211 688 q 209 662 203 632 q 197 603 183 546 q 172 503 168 483 q 164 464 162 447 q 160 437 160 427 q 160 415 163 406 q 169 380 205 379 q 208 379 214 380 q 221 380 226 380 l 238 380 l 241 379 q 243 377 243 375 q 243 374 242 373 q 241 369 238 368 q 231 365 218 345 q 205 325 191 298 q 164 241 157 195 q 156 188 156 183 q 156 177 156 165 q 156 156 156 151 q 156 146 156 143 q 157 140 158 135 q 160 123 163 112 q 166 101 171 84 q 178 65 181 55 q 185 44 186 38 q 188 32 189 25 q 189 20 189 12 l 189 5 q 189 -6 188 -14 q 182 -40 167 -62 q 144 -94 117 -114 q 90 -133 71 -133 q 69 -133 67 -132 q 55 -131 51 -121 q 49 -116 49 -109 l 49 -106 q 49 -97 53 -88 q 54 -83 58 -83 l 59 -83 q 61 -83 61 -84 q 62 -85 62 -88 q 62 -91 62 -97 l 62 -102 q 62 -106 62 -109 q 63 -113 66 -114 q 67 -115 69 -115 q 74 -115 80 -112 q 90 -109 101 -101 q 125 -83 142 -60 q 158 -36 163 -13 q 165 -4 165 4 q 165 12 163 19 q 160 36 148 63 q 136 90 131 109 q 125 128 124 147 q 124 152 124 157 q 124 198 144 247 q 157 275 176 308 q 196 341 214 363 l 215 365 l 201 365 q 189 365 184 366 q 179 367 172 369 q 129 384 129 441 q 129 450 130 461 q 132 480 137 503 q 143 526 157 573 q 172 620 178 646 q 185 671 188 693 q 190 707 191 715 q 191 723 191 729 q 191 735 191 741 q 191 758 188 770 q 186 782 181 792 q 179 796 177 798 q 175 801 172 805 q 164 812 156 815 q 147 818 134 818 q 103 818 79 802 q 73 798 71 798 q 69 799 69 800 q 68 801 68 802 l 68 804 q 68 806 75 810 q 82 815 90 819 q 111 831 133 832 q 138 833 140 833 q 142 833 143 833 l 146 833 q 148 833 152 832 z"},"Z":{"x_min":0,"x_max":782,"ha":782,"o":"m 340 -154 q 331 -152 322 -147 q 318 -145 313 -139 q 309 -134 306 -130 q 296 -113 296 -92 q 296 -68 308 -38 q 312 -28 314 -21 q 317 -15 321 -7 q 357 57 440 126 q 533 203 601 234 q 601 234 602 234 q 605 235 606 236 q 607 237 607 240 q 607 242 605 247 q 604 249 604 250 q 589 294 553 321 q 515 350 455 355 q 447 355 436 355 l 422 355 q 401 355 389 354 q 362 351 327 345 q 313 342 306 341 q 298 339 293 339 q 289 338 284 337 l 278 337 q 255 337 248 351 q 245 354 245 359 q 245 363 248 368 q 252 385 354 490 q 390 529 413 554 q 436 579 457 603 q 502 655 529 694 q 567 751 567 784 q 568 787 568 789 q 568 797 565 803 q 563 810 556 817 q 532 840 501 841 q 471 842 466 842 q 414 842 349 825 q 280 806 213 772 q 117 724 58 666 q 8 616 8 588 q 8 583 10 579 q 12 577 13 575 q 14 574 16 573 q 25 568 25 563 q 25 561 24 559 q 21 554 15 554 l 14 554 q 7 555 0 562 q -10 572 -10 586 q -10 597 -3 611 q 0 617 3 623 q 6 628 11 635 q 59 697 165 758 q 310 840 441 854 q 450 855 463 855 q 477 855 490 855 q 502 854 509 854 q 559 847 580 824 q 599 805 600 778 q 600 770 599 763 q 591 704 508 609 q 497 597 485 583 q 473 570 452 550 q 432 529 396 493 q 364 461 340 437 q 317 413 313 409 q 298 393 289 381 q 279 369 279 368 l 279 367 l 280 367 q 286 367 311 370 q 354 375 377 376 q 399 377 414 377 q 423 377 432 377 q 496 374 541 352 q 620 312 634 227 q 636 216 636 197 q 636 179 634 166 q 617 61 524 -45 q 516 -56 504 -68 q 491 -81 482 -89 q 419 -144 368 -154 q 361 -155 353 -155 q 345 -155 340 -154 z m 368 -142 q 398 -135 435 -108 q 476 -77 515 -29 q 571 41 596 113 q 611 158 611 198 q 611 204 611 211 q 611 218 610 224 q 609 229 609 230 l 608 230 q 607 230 602 227 q 595 224 586 220 q 578 215 572 212 q 540 193 501 165 q 389 81 342 3 q 332 -14 324 -33 q 316 -53 313 -69 q 312 -78 312 -85 q 312 -92 312 -95 q 312 -101 312 -105 q 319 -143 354 -143 l 358 -143 q 361 -143 364 -142 q 366 -142 368 -142 z"},"x":{"x_min":0,"x_max":306,"ha":306,"o":"m -36 166 q -39 168 -39 170 q -39 174 -24 197 q -19 204 -14 211 q -9 218 -7 221 q 0 233 6 243 q 16 257 23 269 l 32 282 l 28 288 q 7 321 -6 369 q -8 379 -9 384 q -9 389 -9 391 q -9 397 -7 400 q -3 407 4 407 q 11 408 16 401 q 21 396 23 368 q 23 361 24 355 l 26 342 q 28 332 32 318 q 36 305 40 298 q 40 297 41 297 q 41 297 42 298 q 42 299 44 302 q 46 304 48 308 q 52 314 56 319 q 106 397 119 420 q 122 427 124 429 q 126 431 130 431 q 133 431 135 430 q 137 430 139 428 q 140 426 140 425 q 140 424 140 423 q 139 419 136 417 q 134 416 127 408 q 120 399 111 388 q 102 376 94 365 q 86 355 76 339 q 65 322 56 308 q 47 294 45 291 l 45 290 q 45 289 45 287 q 46 286 47 284 q 63 258 89 245 q 108 234 135 234 q 194 234 253 286 q 266 298 282 315 q 299 333 307 343 q 310 346 311 348 q 312 349 313 349 q 315 349 315 348 q 315 345 309 336 q 293 318 274 299 q 255 279 239 267 q 199 236 158 229 q 145 227 132 227 q 95 227 66 248 q 60 252 52 260 q 43 268 39 273 q 39 274 38 275 q 37 276 37 276 l 37 277 q 36 277 29 265 q 22 253 13 238 q 4 222 -4 207 q -13 192 -17 185 q -24 172 -27 168 q -31 165 -33 165 q -34 165 -36 166 z"},")":{"x_min":0,"x_max":321,"ha":321,"o":"m 105 811 q 129 809 153 785 q 196 741 226 675 q 259 597 269 496 q 272 458 272 419 q 272 387 270 354 q 253 152 175 -8 q 149 -62 123 -87 q 101 -108 81 -111 l 78 -111 q 63 -111 55 -102 q 49 -95 49 -87 q 49 -83 51 -77 q 52 -74 55 -70 q 57 -65 59 -62 q 62 -59 62 -58 q 64 -57 66 -57 l 68 -57 q 71 -58 72 -61 l 74 -63 l 83 -55 q 128 -9 173 82 q 183 101 190 117 q 197 134 205 154 q 249 277 257 410 q 257 428 257 456 q 257 484 256 500 q 249 592 221 661 q 193 734 146 781 q 125 802 104 804 q 101 805 99 805 q 98 806 98 808 q 98 809 100 810 q 101 811 103 811 l 103 811 q 104 811 105 811 z"},"&":{"x_min":0,"x_max":514,"ha":514,"o":"m 90 -28 q 58 -18 50 37 q 49 47 49 63 q 49 79 50 92 q 59 205 136 434 l 146 467 l 146 477 q 143 496 143 518 q 143 559 153 606 q 166 661 188 710 q 211 759 237 787 q 250 801 259 801 q 261 801 262 800 q 275 796 275 774 q 275 763 271 747 q 267 724 254 686 q 242 648 213 574 q 181 487 168 452 l 162 437 l 165 428 q 190 359 252 315 q 286 292 331 276 q 341 272 348 271 q 355 269 357 269 l 358 269 q 358 270 363 277 q 368 284 374 294 q 380 305 386 314 q 417 363 448 420 q 450 425 452 428 q 455 432 455 432 q 456 433 457 433 l 458 433 q 459 432 459 430 q 459 428 444 400 q 429 373 409 338 q 390 304 374 279 q 367 267 367 266 q 368 265 374 264 q 380 263 388 261 q 396 259 402 258 q 409 257 418 255 q 425 254 430 253 q 436 252 442 251 q 448 250 452 250 q 458 249 461 247 q 463 246 464 243 q 465 241 465 240 q 465 240 465 239 q 465 238 465 237 q 464 235 462 233 q 460 231 458 230 q 457 230 455 230 q 453 230 451 231 q 449 231 442 233 q 435 234 428 236 q 418 238 411 240 q 394 244 386 246 q 378 248 372 250 q 367 251 363 252 q 360 253 359 253 q 358 253 357 251 q 355 249 351 242 q 316 188 280 138 q 244 87 217 55 q 157 -17 117 -27 q 110 -29 105 -29 q 101 -29 100 -29 q 94 -29 90 -28 z m 164 515 q 181 566 213 651 q 229 696 237 718 q 245 740 250 758 q 253 769 254 774 q 255 780 255 783 q 255 785 255 786 q 255 786 255 786 l 254 786 q 249 784 239 773 q 229 763 220 748 q 189 699 169 634 q 150 569 150 516 q 150 511 150 504 q 151 497 151 491 q 151 486 152 484 l 152 484 q 152 484 153 484 q 153 485 153 486 q 154 488 155 491 q 156 494 158 498 q 160 504 164 515 z m 114 -9 q 131 -4 154 13 q 219 63 338 239 l 350 256 l 337 261 q 241 295 191 364 q 172 390 162 417 q 160 420 159 422 q 158 424 158 425 q 157 425 137 366 q 77 190 67 89 q 67 79 67 69 l 67 58 q 67 42 68 32 q 76 -10 103 -10 q 108 -10 114 -9 z"},"_":{"x_min":0,"x_max":367,"ha":367,"o":"m 62 215 q 55 216 52 220 q 49 224 49 228 l 49 229 q 49 237 57 240 q 58 240 58 241 q 58 241 59 241 q 59 241 60 241 q 61 242 63 242 q 65 242 69 242 q 73 242 78 242 q 84 242 92 242 q 100 242 111 242 q 123 242 137 242 q 161 242 196 242 q 243 242 277 241 q 312 241 314 241 q 318 240 318 237 l 318 236 l 317 235 l 295 234 q 179 232 95 218 q 79 216 73 215 q 68 215 65 215 z"},"v":{"x_min":0,"x_max":229,"ha":229,"o":"m 46 218 q 31 224 19 249 q 10 269 2 301 q -5 333 -8 368 q -10 379 -10 388 q -10 406 -4 413 q 0 421 7 421 l 8 421 q 16 420 20 412 q 21 407 21 399 q 21 391 20 378 q 19 372 18 365 q 18 356 17 350 q 17 341 17 333 q 17 292 27 261 q 38 227 55 227 l 57 227 q 77 232 97 288 q 102 303 107 322 q 112 340 114 352 q 120 386 122 402 q 124 418 124 431 l 124 437 q 124 447 122 452 q 121 457 118 463 q 117 466 116 468 q 115 470 115 470 q 115 472 117 473 q 118 474 120 474 q 122 474 125 471 q 128 468 129 464 q 132 456 132 441 q 132 425 129 400 q 125 369 121 351 q 118 333 111 312 q 85 217 54 217 l 53 217 q 51 217 49 217 q 47 217 46 218 z"},"O":{"x_min":0,"x_max":790,"ha":790,"o":"m 397 -67 q 359 -61 329 -31 q 255 43 240 215 q 239 224 239 243 q 239 262 239 281 q 239 299 240 308 q 246 384 268 437 q 280 467 295 481 q 304 491 313 493 q 315 493 316 493 q 330 493 336 477 q 337 474 337 473 q 337 471 337 469 q 336 468 336 467 q 335 466 333 465 q 331 464 329 464 q 324 464 320 472 l 319 473 q 318 473 317 473 q 315 471 312 464 q 308 458 304 449 q 275 390 266 299 q 262 267 262 235 q 262 152 285 76 q 322 -37 396 -55 q 403 -56 410 -56 q 416 -56 419 -56 q 425 -56 430 -55 q 478 -46 521 9 q 599 111 628 302 q 636 358 636 410 q 636 470 625 524 q 591 684 470 739 q 426 759 375 760 l 368 760 q 242 760 145 656 q 99 607 65 541 q 38 488 23 427 q 16 399 12 364 q 11 356 11 351 q 10 346 10 339 q 10 332 10 320 q 10 299 10 289 q 11 279 14 263 q 17 249 21 235 q 24 222 29 214 q 30 212 31 212 q 32 211 34 211 q 42 211 42 205 q 42 203 41 201 q 38 193 34 193 q 30 193 30 193 q 23 193 17 199 q 14 203 11 207 q 8 211 5 219 q -8 244 -10 292 l -10 323 q -9 340 -8 355 q -7 365 -4 382 q -1 398 1 409 q 44 585 167 693 q 243 756 334 767 q 348 768 365 768 q 383 768 396 767 q 406 766 414 764 q 421 763 430 761 q 530 735 588 641 q 635 563 643 451 q 644 434 644 404 q 644 373 642 355 q 633 240 599 138 q 562 31 507 -23 q 485 -45 462 -57 q 449 -62 439 -65 q 428 -68 415 -68 q 402 -68 397 -67 z"},"(":{"x_min":0,"x_max":321,"ha":321,"o":"m 215 -111 q 192 -108 168 -85 q 124 -41 95 24 q 62 103 52 204 q 49 240 49 277 q 49 311 51 346 q 68 547 146 708 q 172 762 198 786 q 220 808 241 811 l 245 811 q 258 811 266 802 q 272 795 272 788 q 272 783 270 777 q 269 774 266 770 q 264 766 261 762 q 259 759 258 758 q 256 757 254 757 q 251 757 249 761 l 247 763 l 238 755 q 192 709 147 618 q 138 599 131 583 q 124 566 117 546 q 72 423 64 290 l 64 244 q 64 215 65 199 q 73 107 100 39 q 128 -34 175 -81 q 195 -103 217 -104 q 220 -105 221 -106 q 222 -106 222 -108 q 222 -109 221 -110 q 220 -111 219 -111 q 218 -111 217 -111 q 216 -111 215 -111 z"},"C":{"x_min":0,"x_max":546,"ha":546,"o":"m 218 -82 q 170 -75 126 -41 q 119 -34 108 -23 q 97 -13 90 -5 q 13 89 -5 251 q -10 292 -10 334 q -10 383 -4 432 q 11 548 53 633 q 97 725 157 744 q 170 749 184 749 l 186 749 q 214 747 233 727 q 257 703 266 648 q 271 616 271 576 q 271 532 265 478 q 264 476 264 473 q 263 463 262 460 q 262 456 262 454 l 262 451 q 262 448 263 446 q 264 444 264 443 q 264 442 264 441 q 264 440 264 440 q 263 438 261 436 q 259 434 257 433 l 256 433 q 254 433 252 434 q 250 435 249 437 q 247 439 247 445 q 247 454 250 469 q 251 474 251 477 q 254 489 255 497 q 256 504 257 514 q 263 550 263 583 q 263 615 257 646 q 245 719 206 729 q 202 729 197 729 l 192 729 q 185 729 178 728 q 148 718 120 680 q 83 628 57 546 q 29 461 22 362 q 21 352 21 332 q 21 311 21 291 q 21 270 21 259 q 26 188 44 129 q 74 34 131 -18 q 176 -59 223 -65 q 231 -66 240 -66 q 286 -66 333 -34 q 408 17 480 168 q 492 193 506 226 q 520 259 526 279 q 528 284 532 292 q 533 296 534 300 q 537 306 540 314 q 543 323 545 330 q 547 335 548 339 q 550 343 551 345 q 551 347 552 348 q 552 349 553 349 q 553 349 554 349 l 554 349 q 555 349 555 349 q 556 348 556 347 q 556 344 548 323 q 541 302 531 275 q 521 248 512 226 q 477 139 435 68 q 352 -68 251 -82 q 245 -83 235 -83 q 225 -83 218 -82 z"},"W":{"x_min":0,"x_max":947,"ha":947,"o":"m 583 -131 q 516 -117 443 0 q 414 46 388 107 q 371 147 354 197 q 341 235 331 272 q 321 309 310 358 q 305 380 298 413 q 291 447 286 475 q 281 500 277 518 q 273 536 272 536 q 272 536 271 532 q 269 529 267 524 q 265 520 264 515 q 250 475 226 368 q 223 354 217 327 q 211 299 205 269 q 195 224 190 202 q 169 111 151 69 q 133 26 111 18 q 108 16 106 16 q 104 16 100 16 q 95 16 93 16 q 90 16 87 18 q 49 34 23 135 q 15 167 6 220 q 5 226 3 240 q 1 254 0 269 q -2 284 -3 292 q -3 297 -4 304 q -5 317 -6 333 q -7 349 -8 361 q -10 394 -10 436 l -10 454 q -10 507 -7 547 q -4 580 -3 596 q -1 613 2 633 q 14 714 37 746 q 55 768 73 768 q 77 768 82 767 q 86 766 88 764 q 90 763 90 759 q 91 757 92 755 q 92 753 92 753 q 92 751 89 742 q 85 733 82 723 q 78 712 75 705 q 52 649 37 560 q 36 548 34 541 q 33 534 32 527 q 32 521 30 509 q 30 506 29 503 q 25 465 23 433 q 21 401 21 359 q 21 340 21 329 q 21 317 21 309 q 21 300 22 289 q 24 259 25 241 q 27 224 29 208 q 30 204 30 201 q 32 187 34 178 q 35 168 37 158 q 55 68 83 41 q 91 33 99 33 q 129 33 161 136 q 167 157 173 181 q 180 206 189 249 q 191 256 194 267 q 196 278 201 300 q 203 307 205 316 q 207 325 208 332 q 209 338 211 347 q 213 355 215 361 q 236 456 247 496 q 257 531 261 542 q 267 556 275 556 q 277 556 279 555 q 289 554 297 529 q 305 504 316 437 q 319 423 322 407 q 329 372 334 350 q 365 201 413 90 q 479 -60 556 -107 q 576 -119 594 -119 q 638 -119 669 -54 q 723 53 738 348 q 738 358 738 368 q 739 377 739 382 q 743 446 743 503 q 743 547 741 587 q 734 696 708 760 q 705 768 701 775 q 697 783 689 794 q 685 801 682 806 q 679 811 678 812 q 677 815 677 817 q 677 823 681 828 q 683 829 685 830 q 688 832 690 832 q 696 832 702 825 q 711 817 717 803 q 723 789 729 762 q 746 695 750 598 q 751 575 751 525 q 751 475 750 441 q 748 371 746 339 q 739 214 730 149 q 710 -11 669 -80 q 645 -121 612 -130 q 605 -131 600 -131 q 594 -131 592 -131 q 587 -131 583 -131 z"},"A":{"x_min":0,"x_max":799,"ha":799,"o":"m 189 -126 q 188 -126 187 -125 q 186 -124 185 -123 l 183 -121 l 183 -106 q 183 -66 190 13 q 198 92 210 168 q 215 203 222 241 q 229 278 235 303 q 235 307 236 310 l 236 312 q 235 312 224 310 q 212 309 195 306 q 177 303 160 300 q 150 298 137 295 q 125 293 115 291 q 105 290 104 289 q 104 289 104 288 q 104 288 105 287 q 106 285 106 283 q 106 280 103 277 q 101 274 98 274 q 95 274 92 275 q 86 277 75 277 q 53 277 11 269 q 5 268 2 268 q -1 268 -3 268 q -4 269 -6 271 q -10 274 -10 278 q -10 282 -5 286 q -4 287 0 288 q 3 290 12 291 q 21 293 38 296 q 55 299 81 303 q 168 318 224 324 q 228 325 231 326 q 239 327 240 327 q 240 328 241 334 q 243 340 246 349 q 268 438 299 524 q 310 553 325 588 q 341 624 354 650 q 434 803 496 825 q 502 826 509 826 q 516 826 522 825 q 552 815 567 758 q 582 710 585 614 q 585 600 586 559 q 586 518 586 470 q 586 422 585 388 l 585 352 l 604 352 q 614 353 639 353 q 665 353 693 353 q 711 353 723 353 q 736 353 744 352 q 751 352 756 352 q 761 352 763 352 q 765 351 766 350 q 767 350 768 349 l 768 349 q 770 347 770 344 q 770 343 769 341 q 767 337 763 337 q 762 337 760 338 q 759 338 758 338 q 750 342 716 343 q 682 345 651 345 q 636 345 620 344 q 605 344 595 344 q 585 343 585 343 l 585 342 q 585 338 585 323 q 584 308 584 288 q 584 115 598 26 q 603 -10 609 -36 q 615 -63 620 -71 q 621 -73 622 -74 q 622 -75 623 -75 q 624 -75 625 -75 l 626 -75 q 629 -75 631 -78 q 631 -79 631 -80 q 631 -82 629 -84 q 626 -86 623 -86 l 621 -86 q 616 -85 612 -81 q 601 -67 590 -19 q 580 29 574 86 q 572 108 570 140 q 568 171 567 201 q 567 210 566 233 q 566 256 565 282 q 565 308 564 327 l 564 342 l 554 342 q 534 342 494 339 q 455 337 418 334 q 341 328 255 315 q 249 314 248 313 q 248 312 246 304 q 245 295 242 284 q 240 272 238 262 q 208 95 205 -63 q 205 -81 205 -88 q 205 -95 206 -96 q 206 -98 206 -99 q 206 -101 206 -105 q 205 -107 205 -109 q 204 -118 202 -121 q 201 -125 197 -126 q 195 -127 193 -127 q 192 -127 189 -126 z m 283 332 q 399 344 542 351 l 564 351 l 564 422 q 564 443 564 460 q 564 493 563 493 l 563 498 q 563 510 562 535 q 561 646 558 672 q 557 691 555 706 q 553 721 553 725 q 552 726 552 729 q 551 733 551 738 q 550 740 550 742 q 549 749 548 753 q 547 758 545 765 q 533 811 514 817 q 512 817 510 817 q 507 817 505 817 q 462 817 393 705 q 346 626 307 520 q 297 493 287 461 q 277 429 269 401 q 268 395 266 390 q 265 384 264 382 q 264 378 261 370 q 259 362 257 352 q 254 343 253 336 q 251 329 251 328 q 251 328 252 328 q 252 328 253 328 q 255 328 266 330 q 273 331 283 332 z"},"f":{"x_min":0,"x_max":248,"ha":248,"o":"m 101 -35 q 83 -33 69 -15 q 34 26 11 125 q -3 184 -7 249 q -8 255 -8 262 q -9 265 -9 267 q -9 274 -10 290 q -10 305 -10 316 l -10 337 q -10 359 -9 369 q -7 430 1 477 q 12 542 30 591 q 48 642 71 670 q 94 699 115 699 l 116 699 q 137 698 142 669 q 143 664 143 660 q 144 655 143 646 q 143 610 129 565 q 110 505 81 455 q 51 405 21 384 q 19 382 17 380 q 15 379 15 378 l 15 375 q 15 372 14 368 q 13 354 12 344 q 12 333 12 322 l 11 306 l 15 303 q 41 283 71 278 q 77 277 82 277 q 87 276 98 276 q 112 276 119 277 q 125 277 136 280 q 168 287 202 308 q 229 324 246 341 q 252 347 254 348 q 255 349 256 349 q 257 349 257 347 q 257 343 243 331 q 229 319 211 307 q 153 268 97 268 l 89 268 q 55 269 32 282 q 29 283 28 283 q 28 283 29 282 l 31 280 q 36 274 40 270 q 43 266 47 260 q 111 182 130 101 q 140 65 140 33 q 140 21 139 13 q 138 5 135 -3 q 133 -12 128 -20 q 123 -27 118 -31 q 114 -33 110 -34 q 105 -35 103 -35 z m 23 394 q 49 415 75 459 q 101 502 118 552 q 137 611 137 646 q 137 655 136 662 q 131 686 120 686 q 114 686 105 678 q 80 653 55 579 q 30 500 19 412 q 18 405 17 400 q 17 396 17 394 q 17 391 17 390 q 17 389 17 389 l 19 391 q 21 392 23 394 z m 108 -18 q 121 -11 125 20 q 126 27 126 35 q 126 42 126 46 q 126 53 126 59 q 122 95 108 135 q 104 150 95 168 q 86 186 79 199 q 67 217 52 238 q 38 259 26 273 q 21 279 16 284 l 12 289 q 11 289 11 282 q 11 275 11 266 q 12 257 12 248 q 12 239 13 234 q 17 187 21 158 q 35 76 59 27 q 71 2 83 -9 q 94 -19 103 -19 q 105 -19 108 -18 z"},"Q":{"x_min":0,"x_max":770,"ha":770,"o":"m 357 -88 q 303 -79 263 -20 q 260 -16 259 -15 q 258 -13 257 -13 q 256 -13 255 -13 q 254 -13 251 -13 q 248 -14 245 -14 q 212 -17 177 -22 q 141 -26 113 -31 q 107 -32 96 -34 q 85 -36 74 -39 q 66 -40 59 -41 q 47 -43 46 -43 q 43 -43 41 -42 q 38 -41 36 -38 q 33 -34 33 -30 q 33 -29 34 -27 q 36 -21 42 -18 q 44 -17 67 -15 q 84 -14 110 -11 q 117 -11 124 -10 q 180 -5 226 -2 q 236 -1 244 0 l 250 0 l 248 5 q 247 7 245 11 q 243 15 241 19 q 206 98 200 166 q 194 233 194 264 q 194 335 208 403 q 224 473 249 498 q 260 509 271 509 q 272 509 274 509 q 286 506 292 493 q 297 483 297 477 q 297 471 292 469 q 291 468 289 468 q 284 468 279 476 q 278 478 276 480 q 275 481 274 482 l 272 485 l 269 481 q 265 475 259 460 q 253 446 248 430 q 228 365 222 278 q 221 269 221 255 q 221 241 221 231 l 221 212 q 221 193 222 185 q 229 79 262 13 q 264 8 265 6 q 267 3 267 2 q 268 1 269 1 q 269 1 270 1 q 271 1 281 1 q 286 1 292 2 q 390 7 465 7 l 498 7 l 504 15 q 553 85 585 189 q 616 292 625 406 q 625 417 626 438 q 626 459 625 480 q 625 501 625 511 q 621 548 614 578 q 585 707 491 754 q 455 774 408 780 q 403 780 394 781 q 385 781 378 781 l 366 780 q 354 780 348 780 q 270 770 204 726 q 174 706 146 678 q 97 629 64 564 q 21 479 10 377 q 9 368 9 355 q 8 343 8 334 l 8 318 q 9 301 10 292 q 12 270 18 251 q 23 232 28 224 l 30 222 l 32 224 q 34 225 37 225 l 38 225 q 41 225 42 223 q 44 221 44 218 q 44 216 43 214 q 42 209 36 207 q 33 205 29 205 q 18 205 7 224 q -8 252 -10 307 l -10 322 q -10 424 32 527 q 37 540 46 558 q 55 576 62 588 q 142 722 270 770 q 310 784 351 788 q 361 789 376 789 q 392 789 402 788 q 516 776 576 688 q 619 625 629 522 q 632 491 632 457 q 632 423 629 386 q 616 240 568 117 q 543 57 514 13 q 513 10 512 9 l 511 7 l 524 7 q 537 7 556 6 q 596 5 636 4 q 676 2 740 -1 q 750 -1 762 -2 q 775 -2 786 -2 q 795 -2 800 -2 q 806 -2 809 -2 q 812 -3 813 -4 q 814 -5 815 -6 q 818 -9 818 -13 q 818 -18 814 -22 q 811 -27 807 -27 q 803 -27 800 -21 l 798 -18 l 788 -17 q 742 -10 670 -5 q 599 0 533 0 l 505 0 l 503 -4 q 479 -36 451 -59 q 411 -89 371 -89 q 364 -89 357 -88 z m 391 -74 q 421 -67 450 -45 q 458 -38 469 -27 q 480 -15 490 -4 l 493 0 l 465 -1 q 383 -2 294 -10 q 287 -10 281 -11 l 276 -11 l 276 -12 q 276 -12 276 -13 q 277 -14 278 -16 q 279 -17 279 -18 q 314 -68 360 -75 q 364 -76 370 -76 l 375 -76 q 386 -75 391 -74 z"},"w":{"x_min":0,"x_max":326,"ha":326,"o":"m 159 209 q 135 216 113 256 q 104 272 95 297 q 86 321 82 342 q 81 346 80 348 q 80 351 79 351 q 78 351 73 339 q 69 327 59 297 q 53 283 50 275 q 47 268 43 262 q 35 246 24 246 q 17 246 12 252 q 1 264 -4 303 q -5 314 -5 330 l -5 341 q -5 364 -3 378 q 1 413 13 417 q 15 417 17 417 q 19 417 22 416 q 25 415 27 411 q 28 407 28 399 l 28 391 l 25 388 q 23 387 22 385 q 21 384 21 380 q 12 342 11 324 q 11 306 11 302 q 11 275 18 262 q 21 256 24 256 q 27 256 30 260 q 36 265 42 277 q 47 289 57 314 q 68 346 73 358 q 78 370 81 371 q 83 371 84 371 q 87 371 89 369 q 91 367 93 364 q 94 361 96 354 q 98 348 100 335 q 102 325 104 316 q 106 306 108 301 q 122 253 139 235 q 155 217 167 217 q 174 217 181 223 q 199 236 206 301 q 212 346 212 381 q 212 409 208 431 q 207 446 204 455 q 201 464 197 468 q 193 473 193 477 q 193 479 196 480 q 197 481 198 481 q 199 481 199 481 q 200 480 201 480 q 209 474 214 443 q 218 412 218 379 l 218 365 q 215 295 206 256 q 197 220 179 211 q 175 209 171 209 q 167 208 166 208 q 163 208 159 209 z"},"-":{"x_min":0,"x_max":322,"ha":322,"o":"m 59 315 q 54 316 51 320 q 49 324 49 329 l 49 331 q 49 337 55 341 q 56 341 56 342 q 56 342 56 342 q 57 342 58 343 q 59 343 61 343 q 63 343 67 343 q 70 343 76 343 q 81 343 89 343 q 97 343 107 343 q 118 343 132 343 q 146 343 164 343 l 171 343 q 212 342 240 342 q 268 342 270 341 q 273 341 273 339 q 273 338 272 337 l 272 336 l 254 335 q 157 333 87 319 q 73 316 69 316 q 64 315 62 315 z"},"E":{"x_min":0,"x_max":568,"ha":568,"o":"m 94 -114 q 51 -110 23 -78 q -10 -38 -10 32 q -10 61 -4 96 q 12 194 87 348 q 90 354 93 360 q 102 379 107 390 q 112 400 115 406 q 118 412 120 417 q 131 443 131 455 q 131 457 130 458 q 129 463 121 468 q 113 473 95 480 q 60 493 45 508 q 40 514 36 519 q 32 524 28 531 q 21 545 20 562 l 20 569 q 20 605 42 652 q 67 703 110 749 q 173 812 220 814 l 225 814 q 243 814 254 804 q 271 789 271 754 q 271 738 267 717 q 263 697 255 666 q 251 651 250 645 q 249 639 249 635 q 249 633 248 632 q 248 630 246 629 q 244 627 241 627 l 240 627 q 236 627 234 631 q 234 632 234 633 q 234 634 234 635 l 234 638 q 234 640 236 645 q 238 650 241 659 q 254 701 254 738 l 254 743 q 254 775 244 786 q 241 790 238 791 q 234 792 228 792 l 226 792 q 222 792 219 792 q 217 792 213 791 q 182 779 145 744 q 108 708 81 664 q 49 609 49 573 q 49 556 57 543 q 63 533 75 525 q 88 518 115 508 q 140 500 152 490 q 164 481 167 467 q 168 463 169 460 q 169 458 169 452 q 169 437 161 417 q 153 397 127 351 q 96 294 77 255 q 58 216 44 179 q 17 105 12 44 q 11 37 11 27 l 11 17 q 12 1 13 -7 q 20 -49 43 -73 q 72 -100 113 -100 q 186 -100 296 -18 q 382 48 476 148 q 522 197 568 262 q 572 267 573 268 q 575 270 576 270 q 578 270 578 268 q 578 267 575 263 q 573 259 568 252 q 535 206 500 166 q 465 125 416 77 q 346 7 292 -33 q 183 -115 106 -115 q 100 -115 94 -114 z"},"s":{"x_min":0,"x_max":254,"ha":254,"o":"m 30 76 q 18 79 7 89 q 2 95 -1 100 q -4 105 -7 113 q -10 123 -10 134 q -10 164 11 199 q 19 212 32 227 q 45 242 58 252 l 59 253 q 61 255 62 256 q 64 257 64 258 q 64 258 59 264 q 53 270 40 284 l 38 287 q 25 299 19 307 q 12 314 9 320 q 5 325 2 332 q -5 345 -5 360 q -5 376 3 393 q 18 423 42 432 q 48 433 53 433 q 59 433 63 432 q 78 425 81 404 q 82 398 82 388 q 82 378 81 370 q 81 362 80 360 q 79 360 78 360 q 78 360 77 359 q 77 359 76 359 q 75 359 74 359 q 73 359 72 361 q 71 361 71 362 q 70 363 70 364 q 70 366 71 369 q 71 372 72 377 q 74 386 74 392 q 75 398 75 401 q 75 404 74 407 q 70 422 59 426 q 57 427 55 427 q 48 427 40 421 q 30 415 21 401 q 19 396 16 389 q 13 381 12 375 q 11 370 11 364 q 11 354 16 344 q 19 338 24 331 q 30 324 35 319 q 37 317 42 312 q 47 308 52 303 l 74 282 q 78 277 80 274 q 83 271 83 271 q 84 271 87 274 q 89 275 93 277 q 159 320 244 346 q 256 349 258 349 q 261 349 261 349 q 264 349 264 347 q 264 345 256 343 q 252 342 239 338 q 226 333 211 329 q 197 324 190 321 q 146 303 112 283 q 108 280 102 277 q 96 273 92 270 q 87 267 87 267 l 88 265 q 89 263 91 261 q 116 228 118 189 q 119 184 119 179 q 119 132 88 98 q 74 83 57 78 q 51 76 46 75 q 41 75 39 75 q 34 75 30 76 z m 50 83 q 54 85 60 88 q 66 91 71 94 q 101 121 101 166 q 101 204 79 238 q 69 252 68 252 q 67 252 63 249 q 59 245 53 240 q 48 235 43 230 q -2 182 -2 136 q -2 131 -1 126 q 2 102 17 91 q 27 83 40 83 q 45 83 50 83 z"},">":{"x_min":0,"x_max":219,"ha":219,"o":"m 95 432 q 99 427 108 420 q 116 413 125 406 q 132 399 140 392 q 148 385 152 381 q 163 370 167 364 q 170 357 170 350 l 170 348 q 169 342 165 334 q 161 326 148 309 q 136 292 110 260 q 98 245 91 236 q 84 228 81 224 q 77 221 74 220 q 70 218 65 218 q 61 218 57 220 q 50 224 49 234 q 49 237 49 239 q 49 240 51 243 q 52 246 57 250 q 62 255 76 264 q 93 276 105 286 q 118 296 130 309 q 155 333 159 345 q 160 348 160 352 q 160 354 159 358 q 156 369 124 396 q 118 402 108 410 q 99 418 92 426 q 84 433 82 435 q 81 437 81 438 q 81 440 83 440 q 84 440 93 433 q 94 432 95 432 z"},"l":{"x_min":0,"x_max":301,"ha":301,"o":"m 116 79 q 71 89 40 149 q 9 209 -3 309 q -7 334 -8 357 q -10 379 -10 409 q -10 531 21 624 q 42 687 71 723 q 95 752 117 752 q 119 752 122 751 q 147 746 147 705 q 147 665 123 591 q 92 501 48 430 q 33 406 18 391 l 11 384 l 11 359 l 11 354 q 12 344 12 335 q 12 326 13 321 q 29 151 97 101 q 107 94 118 91 q 124 90 130 90 l 134 90 q 143 90 150 92 q 208 111 261 224 q 273 250 282 273 q 291 296 299 325 q 305 347 307 349 q 307 349 308 349 l 308 349 q 309 349 310 349 q 311 348 311 347 q 311 347 309 340 q 307 334 305 326 q 303 317 301 310 q 298 302 297 298 q 286 264 271 228 q 266 217 257 199 q 249 182 243 172 q 198 94 147 80 q 141 78 134 78 q 128 78 125 78 q 120 78 116 79 z m 22 405 q 37 425 56 458 q 76 492 91 526 q 124 602 136 664 q 139 677 139 684 q 140 691 140 697 l 140 705 q 140 712 140 715 q 139 718 138 722 q 135 732 129 736 q 125 739 121 739 q 117 739 113 736 q 79 716 48 627 q 26 559 17 480 q 15 460 13 435 q 11 409 11 398 l 11 394 l 14 396 q 16 397 18 400 q 20 403 22 405 z"},"8":{"x_min":0,"x_max":463,"ha":463,"o":"m 184 3 q 165 6 151 13 q 147 15 142 19 q 137 23 135 25 q 132 28 130 32 q 127 36 126 39 q 119 52 119 70 q 119 132 206 240 q 210 245 213 248 q 215 251 215 252 l 215 252 q 214 252 214 253 q 213 253 213 253 q 211 254 208 255 l 205 256 q 197 260 179 266 q 176 267 172 268 q 168 270 166 271 q 162 272 157 274 q 152 275 148 277 q 61 308 37 343 q 32 348 30 353 q 27 357 25 362 q 20 373 18 382 q 15 392 15 404 l 15 408 q 15 444 36 486 q 93 593 208 665 q 263 698 303 698 q 312 698 317 697 q 322 696 327 693 q 341 687 344 673 q 345 670 345 667 q 345 663 343 661 q 339 656 334 656 q 332 656 330 657 q 327 659 325 661 q 323 664 323 666 q 323 668 322 669 q 320 671 318 672 q 315 673 309 673 q 302 673 297 672 q 229 657 146 584 q 136 576 123 562 q 109 548 102 540 q 78 513 62 485 q 37 441 37 407 q 37 401 37 396 q 42 348 110 316 q 122 311 136 304 q 151 298 182 287 q 191 283 197 281 q 203 278 204 278 q 205 277 208 276 q 211 274 216 273 q 221 271 224 270 q 228 268 229 268 l 230 270 q 232 271 234 273 q 238 279 248 290 q 256 298 269 313 q 275 321 281 328 q 287 334 290 338 q 293 341 298 347 q 303 353 309 359 q 378 439 407 485 q 439 539 439 572 q 439 582 436 590 q 424 625 345 641 q 335 643 329 644 q 322 645 315 645 q 308 645 301 645 q 295 645 287 645 q 283 645 282 645 q 281 645 281 646 q 280 647 280 647 q 280 648 281 649 q 284 653 308 653 l 314 653 q 327 652 336 652 q 346 651 355 648 q 374 645 386 641 q 399 637 410 631 q 449 613 449 575 q 449 517 364 414 q 355 402 347 393 q 339 383 326 368 q 313 354 290 327 q 271 305 257 288 q 239 268 237 266 q 237 265 237 265 q 237 265 238 264 q 238 264 240 263 q 241 263 243 262 q 245 261 248 260 q 315 230 349 196 q 373 171 380 146 q 381 142 381 138 q 381 135 381 128 q 381 118 380 113 q 379 107 375 99 q 349 42 268 13 q 250 7 229 4 q 220 2 211 2 q 201 2 197 2 q 189 2 184 3 z m 212 15 q 235 18 261 27 q 270 30 282 37 q 295 43 303 48 q 360 87 360 130 l 360 131 q 359 139 358 146 q 356 152 352 159 q 329 203 242 241 q 241 242 239 243 q 237 244 235 244 q 233 245 231 246 q 229 247 227 248 l 224 249 l 215 238 q 141 146 131 89 q 129 81 129 71 q 129 62 131 55 q 135 39 147 29 q 161 19 186 15 q 190 15 198 15 q 206 15 212 15 z"},"\\":{"x_min":0,"x_max":660,"ha":660,"o":"m 610 -45 q 609 -46 608 -46 q 607 -46 606 -45 q 604 -42 594 -27 q 583 -12 572 7 q 529 74 474 156 q 418 238 374 301 q 317 380 259 455 q 202 529 122 627 q 108 644 96 658 q 85 672 82 676 q 59 705 52 720 q 49 727 49 732 q 49 738 53 742 q 57 746 62 746 l 65 746 q 68 746 72 743 q 75 741 81 734 q 98 715 179 600 q 188 588 199 572 q 210 556 220 543 q 277 462 323 395 q 370 327 432 235 q 522 98 574 16 q 581 5 590 -10 q 594 -17 598 -22 q 604 -31 607 -37 q 611 -43 611 -44 q 611 -44 611 -45 q 610 -45 610 -45 z"},"e":{"x_min":0,"x_max":313,"ha":313,"o":"m 92 223 q 31 230 4 283 q -10 311 -10 341 q -10 345 -9 350 q -6 377 4 396 q 8 402 14 408 q 20 415 25 417 q 32 421 38 421 q 43 421 47 418 q 57 412 57 396 q 56 379 45 358 q 34 338 21 328 q 20 327 19 326 q 19 325 19 324 l 19 321 q 19 318 20 312 q 31 252 91 237 q 98 236 106 236 q 115 236 121 236 l 130 236 q 182 242 239 278 q 262 292 283 311 q 305 329 315 342 q 317 345 319 347 q 321 349 322 349 l 322 349 l 323 348 l 324 347 l 323 345 q 323 344 321 341 q 319 338 315 333 q 305 321 281 301 q 192 228 110 222 q 105 222 100 222 q 95 222 92 223 z m 25 340 q 40 357 45 372 q 49 388 49 395 q 49 402 46 407 q 44 408 43 408 q 37 408 29 391 q 19 371 18 342 l 17 332 l 20 333 q 21 334 22 336 q 24 338 25 340 z"},"b":{"x_min":0,"x_max":375,"ha":375,"o":"m 108 66 q 87 75 87 93 q 87 111 87 112 q 87 146 108 190 q 126 227 155 256 l 167 268 l 166 275 q 157 345 134 366 q 125 372 116 372 q 98 372 76 350 q 49 322 29 267 q 25 256 23 252 q 21 248 18 248 l 17 248 q 15 248 13 248 q 10 249 8 251 q -4 267 -9 343 q -10 352 -10 361 q -10 394 -5 435 q -1 481 9 526 q 40 669 97 722 q 116 737 129 737 q 143 737 152 722 q 157 711 157 695 q 157 678 151 654 q 141 616 120 568 q 98 520 72 478 q 46 436 24 413 l 20 408 l 18 399 q 14 360 14 323 l 14 310 q 14 277 17 273 l 17 272 l 17 270 q 17 266 18 266 l 19 266 q 20 267 24 277 q 47 333 75 359 q 101 383 125 383 q 127 383 131 383 q 153 379 169 357 q 176 348 182 332 q 188 317 190 300 q 191 297 191 294 q 192 291 192 290 l 193 288 l 197 291 q 241 321 301 338 q 305 339 309 340 q 312 341 312 341 q 316 342 324 344 q 333 346 342 348 q 352 349 356 350 q 362 350 365 350 q 368 351 371 351 q 373 351 375 351 q 379 351 381 351 q 383 351 384 350 q 384 350 384 349 q 384 348 384 347 q 383 347 382 347 q 381 346 378 346 q 376 346 372 346 q 367 345 362 344 q 356 344 351 343 q 347 342 343 342 q 339 341 338 341 q 334 341 326 339 q 317 337 307 334 q 298 332 291 330 q 280 326 266 320 q 252 314 242 310 q 223 301 204 288 q 200 285 198 284 q 195 282 194 281 q 193 281 193 280 q 193 280 193 279 l 193 279 q 194 276 194 268 q 194 261 194 252 q 194 243 194 236 q 191 190 180 151 q 169 111 154 89 q 141 72 126 66 q 122 65 119 65 q 115 65 114 65 q 111 65 108 66 z m 37 443 q 71 485 101 544 q 141 626 149 677 q 150 683 150 689 l 150 695 q 150 705 148 710 q 144 724 134 724 q 130 724 125 722 q 121 720 115 714 q 109 707 103 698 q 97 690 90 675 q 82 659 77 647 q 47 572 29 472 q 27 465 26 454 q 24 444 23 435 q 21 427 21 425 q 22 425 26 430 q 30 435 37 443 z m 125 86 q 128 88 133 93 q 137 98 141 103 q 159 133 166 192 q 167 203 168 217 q 168 231 168 243 q 168 254 167 258 q 167 258 167 258 q 167 258 166 257 l 159 250 q 129 220 114 185 q 99 150 99 123 q 99 119 99 115 q 102 89 114 84 q 115 84 117 84 q 120 84 125 86 z"},"%":{"x_min":0,"x_max":559,"ha":559,"o":"m 108 42 q 100 46 100 60 q 100 70 104 86 q 122 149 187 255 q 202 281 222 311 q 241 341 258 366 q 290 413 323 458 q 355 504 420 591 q 492 688 492 708 q 492 710 492 711 q 488 721 466 721 q 453 721 434 718 q 382 709 277 671 q 230 654 207 647 q 183 639 169 636 q 151 633 137 633 q 124 633 113 636 l 112 637 q 111 637 110 638 l 109 638 l 110 636 q 111 633 112 629 q 121 601 126 562 q 127 555 127 539 q 127 522 127 506 q 127 489 126 480 q 117 390 87 390 q 84 390 82 390 q 68 395 59 423 q 50 451 49 495 l 49 504 q 49 514 49 526 q 50 543 51 555 q 51 557 51 560 q 51 563 52 566 q 52 568 52 569 q 56 606 63 638 q 76 690 98 690 q 101 690 103 689 q 105 688 107 686 q 113 683 113 672 q 113 659 105 655 q 105 655 105 654 q 105 654 106 652 q 109 650 113 648 q 118 646 122 646 q 128 644 139 644 q 150 644 159 645 q 171 646 185 650 q 198 654 224 662 q 249 670 295 686 q 397 721 450 729 q 460 730 471 730 q 481 730 488 729 q 498 727 503 722 q 510 714 510 703 q 510 698 509 693 q 505 671 479 631 q 454 591 393 512 q 226 295 164 183 q 147 152 134 123 q 121 93 115 74 q 114 70 114 66 q 113 62 113 59 q 113 55 114 55 l 115 55 q 117 55 118 55 q 121 56 122 56 q 128 56 128 50 q 128 48 127 46 q 125 45 122 43 q 118 41 114 41 q 111 41 108 42 z m 419 61 q 417 62 416 62 q 414 63 412 64 q 390 81 382 142 q 381 156 381 178 q 381 199 382 216 q 390 281 405 314 q 417 340 431 340 q 433 340 434 339 q 438 339 440 337 q 443 334 444 332 q 445 329 445 326 q 445 323 444 320 l 442 317 l 444 314 q 457 295 464 257 q 471 218 471 185 q 471 177 470 168 q 465 79 434 62 q 429 61 424 61 q 421 61 419 61 z m 430 86 q 433 88 435 91 q 437 94 439 100 q 451 123 456 165 q 457 171 457 187 q 457 201 456 216 q 456 231 455 239 q 450 284 441 304 l 439 308 l 435 298 q 407 215 407 152 q 407 126 412 104 q 415 95 418 88 q 422 82 425 82 q 425 82 427 83 q 429 84 430 86 z m 92 411 q 102 423 109 451 q 118 488 118 531 l 118 543 q 116 593 103 633 q 100 642 100 642 q 99 643 99 643 q 98 643 96 638 q 92 624 86 600 q 81 576 79 560 q 76 541 74 528 q 73 516 72 501 q 71 492 71 483 q 71 455 76 434 q 78 422 82 415 q 85 408 88 408 q 89 408 90 409 q 91 410 92 411 z"},"m":{"x_min":0,"x_max":558,"ha":558,"o":"m 9 236 q -2 241 -6 276 q -10 301 -10 321 q -10 341 -10 347 q -10 373 -8 386 q -5 396 0 403 q 2 405 6 407 q 9 409 12 409 q 15 409 18 407 q 21 406 22 404 q 24 401 25 398 q 25 396 25 394 q 25 390 24 385 q 23 377 21 364 q 13 323 12 291 q 12 279 13 270 q 13 260 15 255 q 15 253 16 253 l 16 253 q 18 255 21 262 q 23 266 25 270 q 26 274 29 282 q 32 290 38 305 q 38 306 39 307 q 50 339 59 360 q 68 381 78 400 q 109 462 134 473 q 138 475 141 475 q 149 475 156 468 q 159 464 162 458 q 165 451 167 445 q 168 437 170 429 q 171 420 171 406 q 171 391 172 363 q 172 342 173 325 q 173 309 173 306 q 174 299 175 293 q 176 288 177 288 q 178 288 184 297 q 189 306 202 328 q 220 360 235 367 q 238 369 240 369 q 242 370 246 370 q 250 370 251 369 q 253 369 256 367 q 264 364 270 357 q 276 350 286 333 q 297 314 304 305 q 311 296 319 290 q 336 278 359 273 q 368 272 380 272 q 392 272 402 273 q 452 280 526 325 q 531 328 539 333 q 546 337 551 341 q 558 345 561 347 q 564 349 566 349 q 567 349 567 348 l 567 347 q 567 347 566 346 q 565 344 562 342 q 553 334 537 324 q 521 314 505 305 q 446 271 399 264 q 394 263 389 263 q 383 263 375 263 q 367 263 363 263 q 359 263 356 263 q 353 264 349 265 q 307 272 282 308 q 279 312 275 317 q 271 323 267 330 q 257 345 252 350 q 247 354 243 354 q 242 354 240 353 q 233 350 225 339 q 217 327 204 301 q 200 292 196 285 q 192 278 191 276 q 184 267 176 267 q 171 267 167 270 q 159 275 155 296 q 154 304 153 313 q 152 323 152 343 q 151 362 150 397 q 148 434 146 449 q 144 463 140 465 q 139 465 137 465 q 130 465 118 453 q 103 437 85 401 q 64 359 41 286 q 36 268 32 258 q 28 249 26 244 q 23 240 21 238 q 19 236 16 236 q 14 236 13 236 q 11 236 9 236 z"},"#":{"x_min":0,"x_max":613,"ha":613,"o":"m 279 47 q 274 49 274 56 l 274 58 q 278 93 288 153 q 298 213 311 269 q 312 276 313 280 q 314 284 315 286 q 315 289 316 290 q 316 292 316 293 q 316 294 317 295 q 317 296 317 297 q 317 297 317 297 q 317 297 317 298 l 316 298 q 313 298 296 294 q 277 291 252 286 q 228 281 208 276 q 189 272 187 271 q 187 270 185 262 q 183 254 180 243 q 177 231 175 221 q 174 216 173 211 q 172 207 171 206 q 170 201 168 190 q 166 179 164 167 q 162 156 161 149 l 161 148 q 161 145 160 142 q 160 140 160 139 q 160 138 160 138 q 161 137 162 137 l 162 137 q 165 135 165 132 l 165 131 q 165 128 161 124 q 158 122 156 122 q 154 122 153 123 q 149 124 148 128 q 147 132 147 138 q 147 158 155 208 q 157 216 158 223 q 159 229 162 243 q 162 245 163 249 q 164 253 165 257 q 165 261 166 264 l 166 266 q 165 266 149 262 q 133 257 109 251 q 69 239 59 237 q 57 236 55 236 q 54 236 53 237 q 49 239 49 243 q 49 245 51 247 q 54 249 57 250 q 68 254 98 263 q 128 271 155 278 l 170 282 l 171 289 q 172 292 173 296 q 174 300 174 303 l 180 326 q 186 350 194 382 q 202 413 208 432 q 208 433 208 434 l 208 434 l 207 434 q 206 434 202 433 q 197 432 192 431 q 186 430 173 427 q 161 425 147 423 q 129 419 117 417 q 105 415 97 414 q 89 412 85 411 q 80 411 78 411 q 76 411 74 411 q 73 411 73 412 q 69 414 69 417 l 69 418 q 69 422 73 424 q 75 425 81 426 q 87 427 93 428 q 99 430 101 430 q 104 430 105 428 q 105 428 106 428 q 107 428 109 428 q 110 428 114 429 q 117 429 122 430 q 127 431 135 432 q 143 433 154 435 l 207 444 l 211 444 l 213 449 q 215 457 221 476 q 227 495 233 512 q 270 621 297 657 q 304 667 309 667 q 310 667 311 667 q 313 667 316 665 q 319 663 320 659 l 320 658 q 320 647 301 600 q 261 500 252 476 q 251 474 250 469 q 249 465 247 460 q 245 456 244 453 q 244 451 244 450 l 244 450 l 247 450 q 250 450 255 451 l 263 452 q 282 455 305 458 q 328 460 345 462 l 360 464 l 361 464 q 362 465 364 471 q 366 477 368 485 q 387 546 408 604 q 429 662 444 691 q 458 719 470 725 q 472 726 475 726 q 479 726 482 723 q 488 720 488 712 q 488 708 486 701 q 484 695 478 679 q 471 664 459 636 q 457 629 453 622 q 447 608 442 595 q 437 583 434 575 q 425 556 416 531 q 406 506 399 488 q 392 469 392 468 l 397 468 q 404 468 413 469 q 454 473 504 476 q 515 477 524 478 q 534 479 538 479 q 539 479 541 479 q 546 480 549 480 q 552 480 553 480 q 555 480 555 480 q 556 480 557 479 q 558 479 558 479 q 560 479 561 478 q 562 477 562 475 q 564 472 564 470 q 564 468 562 465 q 561 461 558 460 q 555 459 553 459 q 551 459 549 460 q 541 465 504 465 q 467 465 420 461 q 412 460 402 459 l 398 459 q 396 459 393 458 q 389 458 388 458 q 386 456 379 434 q 372 413 363 386 q 354 358 348 338 q 341 318 341 315 l 341 315 l 371 319 q 422 326 462 331 q 474 332 486 333 q 492 334 496 334 q 503 335 508 336 q 512 336 514 335 q 516 334 518 333 q 521 330 521 326 q 521 323 518 320 l 515 317 l 490 317 q 471 317 455 316 q 438 314 411 312 q 399 310 382 308 q 365 305 351 303 q 338 302 337 301 q 336 299 331 280 q 326 261 320 237 q 313 212 310 194 q 303 164 297 131 q 291 99 287 79 q 286 66 285 62 q 285 58 285 56 l 285 53 q 286 52 286 51 q 286 49 284 47 q 283 46 281 46 q 280 46 279 47 z m 207 291 q 229 295 258 301 q 287 306 313 310 l 321 312 l 324 324 q 331 352 340 385 q 349 417 356 444 l 359 455 l 357 455 q 354 455 336 453 q 317 450 295 447 q 273 444 257 442 q 241 439 239 439 q 239 438 233 422 q 228 406 221 387 q 215 367 210 354 q 207 342 205 334 q 203 327 201 321 q 199 315 197 307 q 196 305 195 302 q 194 298 193 294 q 192 291 192 290 q 191 290 191 289 q 191 288 191 288 q 191 287 191 287 l 196 288 q 200 289 207 291 z"},",":{"x_min":0,"x_max":139,"ha":139,"o":"m 50 188 q 49 188 49 190 q 49 191 51 193 q 58 201 64 212 q 70 224 71 232 q 71 236 71 238 q 70 240 69 242 q 67 246 63 249 q 55 256 53 261 q 52 263 52 265 q 52 271 57 274 q 61 277 65 277 q 68 277 71 276 q 75 274 79 270 q 83 266 85 262 q 90 253 90 245 q 90 237 87 230 q 83 214 67 198 q 56 187 52 187 q 50 187 50 188 z"},"n":{"x_min":0,"x_max":456,"ha":456,"o":"m 8 237 q -6 250 -10 331 l -10 359 q -10 373 -9 379 q -4 404 12 404 l 12 404 q 20 403 23 397 q 24 395 24 394 q 24 393 24 392 q 24 391 24 389 q 24 386 23 380 q 21 374 19 363 q 19 361 18 358 q 11 319 11 288 q 11 270 13 255 q 13 254 14 254 q 14 250 15 248 q 16 246 16 246 q 17 246 18 248 q 20 250 24 258 q 28 265 37 283 q 65 342 88 364 q 106 383 122 383 q 131 383 140 375 q 144 373 147 369 q 150 366 155 358 q 160 351 170 335 q 203 282 257 274 q 266 272 280 272 q 295 272 305 274 q 347 280 394 304 q 430 322 455 342 q 460 348 462 348 q 463 349 464 349 q 465 349 466 347 q 466 346 459 340 q 453 334 443 327 q 434 320 423 313 q 340 263 271 263 q 265 263 259 263 q 194 269 156 323 q 153 326 149 332 q 146 338 142 344 q 132 360 127 365 q 122 371 116 371 q 106 371 93 358 q 68 334 40 272 q 32 256 28 248 q 24 239 21 237 q 18 234 14 234 q 12 234 11 235 q 10 235 8 237 z"},"h":{"x_min":0,"x_max":416,"ha":416,"o":"m 10 236 q 7 238 5 244 q 3 250 1 263 q -2 279 -5 298 q -7 316 -9 345 q -9 354 -10 378 q -10 402 -10 427 q -10 452 -9 462 q -6 536 7 595 q 23 663 49 707 q 63 731 80 743 q 90 749 100 749 q 104 749 108 748 q 125 745 128 721 q 129 718 129 713 q 129 708 128 702 q 128 689 127 679 q 125 665 121 648 q 117 630 113 617 q 76 491 21 417 q 18 413 16 411 q 14 408 14 408 q 13 407 13 394 q 12 381 12 365 q 12 348 12 335 q 12 308 14 283 q 16 258 18 250 l 19 248 l 20 250 q 48 322 72 355 q 77 362 81 366 q 84 371 89 375 q 108 395 125 395 q 136 395 147 385 q 153 379 158 371 q 163 363 171 345 q 175 337 178 331 q 182 324 184 321 q 211 272 267 267 q 271 267 276 267 q 312 267 351 290 q 363 298 383 313 q 402 329 417 345 q 422 349 424 349 q 425 349 425 347 q 425 345 418 338 q 411 330 399 320 q 388 310 376 300 q 321 256 267 256 q 253 256 239 259 q 206 266 182 289 q 172 298 164 310 q 156 321 146 344 q 135 365 129 373 q 124 381 118 382 l 117 382 q 98 382 70 341 q 49 310 28 255 q 23 244 21 239 q 20 235 19 235 q 18 234 16 234 l 14 234 q 12 234 10 236 z m 22 430 q 53 476 80 540 q 118 635 122 696 l 122 703 q 122 724 115 730 q 112 733 109 733 q 104 733 96 725 q 65 690 42 603 q 35 574 30 547 q 25 521 20 486 l 19 474 l 18 466 q 18 461 17 456 q 16 450 16 447 l 16 445 q 15 442 15 438 q 15 433 15 430 l 15 426 q 14 423 14 422 q 14 420 14 419 l 14 418 q 14 418 14 418 q 15 418 22 430 z"},"z":{"x_min":0,"x_max":333,"ha":333,"o":"m 38 -146 q 9 -137 9 -89 q 9 -83 10 -76 q 16 -21 48 52 q 54 65 64 84 q 73 103 80 114 q 90 131 102 149 q 115 167 125 179 l 126 181 q 127 182 127 183 l 128 184 q 127 185 125 186 q 123 188 119 189 q 116 190 113 191 q 107 193 101 194 q 95 195 86 195 q 77 194 69 193 q 61 191 46 187 q 37 185 32 183 q 27 182 25 182 q 23 182 22 182 l 20 182 q 9 186 9 198 l 9 200 q 9 210 18 228 q 29 249 59 295 q 121 393 123 407 q 123 410 123 411 q 123 412 122 414 q 118 420 107 420 q 97 420 81 415 q 62 409 41 395 q 20 381 9 368 q 6 364 6 363 q 6 361 6 361 q 6 359 7 358 q 8 356 8 355 q 8 354 7 352 q 5 349 1 349 q -2 349 -4 353 q -5 356 -5 358 q -5 361 -3 365 q 1 372 16 385 q 30 397 48 407 q 84 429 110 430 q 133 430 139 412 q 140 410 140 407 q 141 405 141 399 q 141 389 137 378 q 134 368 125 351 q 118 335 106 314 q 93 294 66 254 q 55 237 46 224 q 38 211 35 207 q 33 204 32 202 q 32 201 32 200 l 32 199 q 32 198 33 198 q 33 198 37 199 q 42 199 47 200 q 72 205 89 205 l 94 205 q 112 204 128 195 l 135 192 l 138 195 q 191 255 275 311 q 294 324 306 330 q 317 337 330 343 q 338 348 340 349 l 342 349 q 343 349 343 347 l 343 346 q 343 346 342 345 q 341 344 338 342 q 335 340 329 336 q 315 329 304 323 q 293 316 278 306 q 193 249 145 193 l 140 188 l 144 184 q 170 160 178 120 q 180 106 180 92 q 180 74 177 54 q 165 -14 121 -81 q 86 -133 56 -145 q 52 -146 48 -146 q 44 -146 42 -146 z m 51 -124 q 75 -112 104 -68 q 132 -23 150 28 q 165 71 165 104 q 165 122 161 137 q 155 159 141 174 l 134 181 l 131 178 q 124 169 112 152 q 100 135 92 121 q 39 31 24 -48 q 22 -63 22 -77 q 22 -88 24 -99 q 27 -120 38 -125 q 40 -127 42 -127 l 43 -127 q 47 -126 51 -124 z"},"B":{"x_min":0,"x_max":679,"ha":679,"o":"m 267 -91 q 194 -78 189 14 l 189 16 q 189 91 232 181 q 284 283 389 361 q 422 386 452 398 q 456 400 459 401 q 462 402 462 402 l 463 403 q 463 403 463 405 q 462 406 460 408 q 436 443 402 466 q 359 495 299 501 q 293 502 279 502 l 268 502 q 250 502 237 501 q 224 500 207 498 q 183 493 155 484 q 127 476 107 466 q 104 464 102 463 q 100 462 100 461 l 99 461 q 99 460 98 460 q 97 460 96 458 q 96 457 94 454 q 93 450 91 444 q 45 309 37 188 q 36 179 36 165 q 36 150 36 137 q 37 125 38 120 l 38 119 q 38 117 38 115 q 39 114 39 114 q 40 113 41 113 q 45 111 45 107 q 45 106 45 105 q 44 98 39 98 q 34 98 31 103 q 28 108 25 123 q 4 222 -5 374 q -8 418 -9 449 q -10 480 -10 508 l -10 537 q -9 649 -2 674 q 2 693 14 694 l 16 694 q 21 694 26 689 q 27 688 28 685 q 29 683 30 678 q 30 673 30 665 q 30 658 30 652 q 30 645 29 633 q 28 622 26 602 q 26 596 25 589 q 20 520 18 477 q 16 435 16 398 l 16 380 q 17 312 21 259 q 21 248 23 235 q 24 221 25 211 q 26 201 26 199 l 26 198 q 27 198 27 202 l 27 203 q 29 225 34 254 q 39 284 45 313 q 53 347 64 386 q 76 425 86 456 q 88 459 88 461 q 89 462 89 462 q 89 463 88 463 q 88 464 88 465 q 86 467 86 470 q 86 473 87 475 q 88 476 89 477 q 91 478 92 478 l 95 480 l 102 495 q 113 522 127 552 q 142 583 156 606 q 236 743 311 784 q 319 789 325 790 q 330 792 336 792 q 340 792 342 792 q 344 792 345 791 q 347 791 349 790 q 366 782 366 759 l 366 755 q 365 735 351 707 q 321 647 257 583 q 211 537 161 500 q 157 498 154 495 q 156 496 163 497 q 169 499 177 501 q 184 503 189 504 q 235 514 276 514 q 306 514 333 509 q 364 502 394 488 q 429 470 458 441 q 481 419 496 393 q 532 330 532 252 q 532 231 529 209 q 519 134 476 60 q 401 -65 305 -89 q 301 -91 296 -91 q 292 -92 284 -92 q 279 -92 274 -92 q 269 -92 267 -91 z m 118 495 q 197 551 247 603 q 325 687 345 751 q 346 758 346 764 q 346 770 345 773 q 340 779 332 779 q 320 779 302 769 q 240 730 174 624 q 140 566 115 506 q 112 500 111 497 q 109 493 108 491 q 107 489 107 489 q 107 488 107 488 l 111 490 q 114 492 118 495 z m 297 -73 q 384 -51 453 71 q 485 129 498 189 q 505 223 505 256 q 505 273 503 290 q 496 348 470 394 q 468 397 467 398 q 466 398 466 398 q 465 398 461 396 q 459 395 455 393 q 451 391 447 390 q 443 388 441 388 q 438 386 430 382 q 422 377 413 371 q 368 340 327 300 q 251 223 219 125 q 201 70 201 28 q 201 11 204 -5 q 210 -36 229 -54 q 243 -69 265 -74 l 281 -74 q 291 -74 297 -73 z"},"K":{"x_min":0,"x_max":614,"ha":614,"o":"m 157 -112 q 147 -106 143 -74 q 142 -59 140 -26 q 138 7 137 49 q 135 109 135 120 l 135 126 l 134 128 q 133 128 118 124 q 103 121 83 115 q 64 110 49 106 l 35 102 l 33 99 q 33 97 31 96 q 30 94 29 93 q 28 93 27 92 q 26 92 25 92 q 23 91 21 91 q 18 91 13 91 q 6 91 3 91 q 0 91 -1 91 q -3 91 -4 92 q -6 93 -7 94 q -8 95 -9 97 q -10 99 -10 102 q -10 107 -2 112 q 8 117 34 124 q 60 132 89 138 l 96 140 l 104 150 q 109 156 117 166 l 123 174 l 133 188 l 133 259 q 133 339 135 408 q 136 478 140 562 q 142 615 145 661 q 147 707 148 724 q 152 760 159 775 q 161 781 164 783 q 167 785 171 785 l 173 785 q 179 785 182 779 q 182 778 182 776 q 183 775 183 771 q 183 768 183 761 q 183 755 183 743 q 183 729 182 719 q 182 709 181 695 q 180 681 178 655 q 177 646 176 635 q 167 527 163 451 q 158 375 155 296 q 155 288 155 274 q 154 260 154 246 q 154 232 154 222 l 153 212 l 159 219 q 165 226 173 236 q 315 409 423 524 q 484 589 548 651 q 611 713 651 747 q 686 776 698 776 q 701 776 704 775 q 708 773 709 771 q 711 768 711 763 q 711 759 708 755 q 702 748 676 726 q 458 548 240 298 q 233 290 217 272 q 201 253 185 234 q 168 214 158 203 l 153 197 l 153 174 q 153 168 153 165 q 153 161 153 158 q 153 156 153 154 q 153 153 154 152 q 154 151 154 151 q 156 152 167 154 q 177 155 190 157 q 204 159 214 161 q 295 172 389 179 q 431 181 454 181 q 477 181 483 181 q 513 181 527 179 q 540 177 540 170 l 540 168 q 538 164 531 163 l 524 163 q 521 163 521 165 q 520 166 520 166 q 519 167 519 167 q 517 167 501 168 q 486 168 468 168 q 450 168 439 167 q 328 162 211 143 q 200 141 187 138 q 173 136 164 134 q 154 132 154 132 l 154 115 q 154 99 154 77 q 155 54 156 32 q 156 11 157 -2 q 159 -50 164 -78 q 164 -78 165 -79 q 165 -83 166 -84 q 166 -86 166 -87 q 167 -88 167 -89 q 167 -89 168 -89 q 172 -89 174 -93 q 174 -95 174 -98 l 174 -100 q 173 -104 172 -107 q 169 -111 167 -112 q 164 -113 163 -113 q 160 -113 157 -112 z m 134 161 q 134 166 134 169 q 134 172 133 173 l 133 173 l 133 173 q 128 168 123 161 q 118 154 113 148 l 109 143 l 115 144 q 118 144 121 145 l 134 147 z"},"R":{"x_min":0,"x_max":644,"ha":644,"o":"m 88 -93 q 85 -92 84 -88 q 83 -85 82 -77 q 80 -66 77 -41 q 74 -17 72 9 q 71 14 71 21 q 70 27 70 33 q 69 37 69 42 q 68 47 68 51 q 68 53 68 54 q 68 57 67 60 q 67 66 66 71 q 63 112 62 148 q 61 154 61 162 q 60 169 60 174 q 60 178 59 182 q 59 187 59 188 l 59 189 q 59 190 59 191 q 58 192 56 192 q 54 192 49 193 l 47 193 q 40 194 29 196 q 19 198 10 199 q 2 201 -1 201 q -8 204 -9 207 q -10 210 -10 211 q -10 215 -5 218 q -2 220 8 220 l 11 220 q 24 219 55 214 l 59 213 l 58 222 q 57 244 56 288 q 55 332 55 375 q 55 430 56 469 q 57 509 59 558 l 59 564 q 60 570 60 575 q 60 580 60 583 q 64 674 70 699 q 72 707 75 714 q 78 722 80 726 q 88 737 101 737 q 117 736 120 718 q 120 715 119 706 q 119 697 119 688 q 118 678 117 673 q 117 669 115 660 q 114 650 113 637 q 109 611 106 589 q 88 455 83 322 l 83 312 l 86 327 q 129 484 224 614 q 281 689 346 739 q 406 783 460 793 q 471 794 483 794 q 496 794 505 793 q 562 781 585 725 q 587 718 590 707 q 592 696 594 688 q 595 679 595 665 q 595 651 594 642 q 585 578 550 511 q 511 438 444 371 q 386 312 312 268 q 242 225 166 205 q 160 203 154 201 q 148 200 146 199 l 140 198 q 140 197 142 197 q 145 196 149 195 q 150 195 151 194 q 159 192 177 188 q 194 184 212 179 q 229 175 238 172 q 337 145 407 120 q 476 96 535 71 q 550 65 558 61 q 566 57 569 54 q 573 51 574 48 q 576 45 576 42 q 576 39 574 36 q 570 30 562 30 q 560 30 559 30 q 558 30 557 30 q 556 31 555 32 q 552 35 552 37 q 552 39 553 40 q 553 40 553 41 l 553 41 q 553 42 551 44 q 548 45 544 49 q 522 65 460 90 q 352 133 218 166 q 187 173 153 180 q 119 188 98 191 l 90 192 l 86 190 q 84 189 83 189 q 82 188 82 188 q 81 188 81 187 q 81 185 81 179 q 81 173 81 163 q 81 140 82 117 q 83 94 83 80 q 83 78 83 76 q 84 71 84 65 q 84 60 84 56 q 85 48 86 29 q 86 17 88 -7 q 92 -76 96 -85 q 97 -87 97 -88 l 97 -89 q 97 -91 96 -93 q 94 -94 93 -94 q 92 -94 91 -94 q 89 -94 88 -93 z m 122 208 q 130 210 138 212 q 146 215 162 220 q 244 247 317 296 q 477 406 544 566 q 562 612 567 644 q 568 654 569 665 q 570 675 570 680 q 570 687 569 697 q 567 708 566 714 q 549 775 492 783 q 487 783 481 783 l 475 783 q 464 783 455 782 q 373 765 280 669 q 189 571 132 432 q 87 320 82 227 l 82 225 q 82 221 82 219 q 82 216 82 214 q 82 212 82 212 q 82 211 82 211 q 82 210 82 210 q 83 209 85 209 q 87 208 91 208 q 99 206 105 206 q 112 206 122 208 z"},"T":{"x_min":0,"x_max":631,"ha":631,"o":"m 435 -128 q 415 -113 403 96 q 396 223 396 299 q 396 374 396 384 q 396 512 402 614 q 409 726 418 767 q 419 770 420 772 q 420 775 420 776 q 421 776 421 777 q 420 777 420 777 q 419 777 417 777 q 415 777 412 776 q 250 760 99 730 q 90 729 83 727 q 76 726 73 725 q 71 724 67 723 q 63 722 60 722 q 47 720 18 713 q 7 711 4 711 q 1 710 0 710 q -2 710 -4 711 q -10 715 -10 720 q -10 722 -9 725 q -8 727 -6 728 q -4 729 0 731 q 4 732 13 734 q 21 735 36 738 q 45 739 56 740 q 66 741 70 741 l 71 741 q 78 741 103 746 q 251 770 397 784 q 410 786 418 786 q 426 787 426 788 q 427 791 431 794 q 435 797 439 799 q 441 800 444 800 q 447 800 449 799 q 455 797 458 793 l 460 790 l 464 791 q 472 791 495 793 q 518 795 539 796 q 658 805 812 807 q 865 808 895 809 q 926 809 942 810 q 958 810 966 811 q 974 812 982 812 q 992 813 998 813 q 1003 813 1005 813 q 1010 813 1012 813 q 1022 810 1022 801 l 1022 800 q 1021 797 1019 794 q 1017 792 1014 791 q 1012 790 1005 790 l 1001 790 q 992 790 983 792 q 945 797 830 797 l 795 797 q 731 797 682 795 q 633 793 573 790 q 551 788 526 786 q 500 785 482 783 q 464 781 462 781 l 463 780 q 463 779 463 777 q 465 774 465 771 q 465 769 463 767 q 462 765 460 763 q 458 761 457 761 q 456 761 455 761 q 455 761 455 760 l 455 758 q 454 756 454 753 q 453 750 452 746 q 427 561 420 374 q 417 320 417 274 q 417 229 417 212 q 417 164 418 132 q 420 72 422 34 q 425 -4 428 -37 q 430 -53 433 -70 q 435 -86 437 -97 q 439 -108 440 -110 l 442 -110 q 443 -109 444 -109 q 446 -109 447 -110 q 449 -111 449 -113 q 450 -115 450 -117 l 450 -120 q 449 -123 448 -126 q 446 -128 445 -129 q 443 -130 441 -130 l 440 -130 q 437 -130 435 -128 z"},"P":{"x_min":0,"x_max":568,"ha":568,"o":"m 29 -95 q 21 -95 10 -9 q 0 66 -4 140 q -4 149 -5 159 q -5 162 -6 164 l -6 181 q -6 184 -6 188 q -6 192 -7 196 q -8 210 -9 252 q -10 294 -10 332 q -10 370 -10 392 l -10 433 q -10 456 -9 490 q -8 523 -7 553 q -6 583 -5 596 q -1 649 9 663 q 11 666 15 668 q 19 670 21 670 q 22 670 23 669 q 25 669 28 668 q 30 666 32 664 q 34 661 35 656 q 35 652 35 647 q 35 643 35 636 q 34 629 34 625 l 34 619 q 34 618 34 617 q 34 616 34 614 q 33 612 32 611 q 32 609 32 607 q 32 606 31 595 q 30 588 30 580 q 24 529 21 492 q 18 455 15 409 q 14 388 13 356 q 12 325 11 306 q 11 287 11 279 l 11 270 l 11 268 l 12 270 q 12 272 13 284 q 15 296 17 308 q 56 542 169 691 q 240 777 312 793 q 320 795 328 795 q 336 795 340 795 q 347 795 353 795 q 428 781 459 684 q 471 645 471 597 q 471 560 463 517 q 436 366 349 255 q 314 210 272 179 q 194 121 115 121 q 93 121 71 125 q 37 132 16 149 l 12 153 l 12 146 q 12 142 12 133 q 12 125 13 105 q 14 101 14 95 q 15 78 17 52 q 19 27 21 6 q 28 -75 34 -86 q 36 -89 36 -91 q 36 -93 35 -94 q 34 -96 32 -96 q 31 -96 29 -95 z m 10 265 l 10 262 q 11 263 11 264 q 11 264 10 265 z m 135 135 q 227 147 309 233 q 390 320 426 459 q 444 531 444 591 q 444 625 438 657 q 423 732 381 764 q 355 781 327 781 q 279 781 222 732 q 142 660 84 521 q 45 423 28 320 q 21 274 18 205 q 18 196 18 192 q 18 188 18 186 q 18 184 19 183 q 20 181 20 179 q 20 177 19 175 q 17 171 13 171 q 12 171 11 171 q 11 170 11 169 q 11 167 14 164 q 17 161 21 157 q 25 154 29 151 q 53 138 91 134 q 96 134 104 134 l 113 134 q 126 134 135 135 z"},"|":{"x_min":0,"x_max":141,"ha":141,"o":"m 82 -132 q 81 -132 80 -132 q 80 -131 79 -129 q 79 -126 79 -108 q 80 -89 80 -67 q 82 12 82 111 q 83 209 81 287 q 79 384 73 479 q 67 573 56 698 q 54 720 53 738 q 51 756 50 762 q 49 780 49 793 q 49 806 51 818 q 53 830 63 832 q 65 833 67 833 q 72 833 76 829 q 79 826 80 822 q 82 818 83 810 q 86 785 88 644 q 88 628 89 608 q 89 589 89 574 q 92 475 92 392 l 92 334 q 92 273 92 200 q 90 36 86 -62 q 86 -72 86 -86 q 85 -97 85 -106 q 85 -116 84 -123 q 84 -130 84 -131 q 83 -132 83 -132 q 83 -132 82 -132 z"},"t":{"x_min":0,"x_max":288,"ha":288,"o":"m 124 75 q 118 76 109 81 q 101 85 94 90 q 33 137 7 304 q -4 376 -4 460 q -4 478 -4 497 q -4 514 -3 528 q -3 541 -3 544 q -2 548 -2 550 l -2 553 l -3 553 q -5 553 -13 552 q -24 551 -40 549 l -48 548 q -126 538 -198 525 q -217 521 -226 520 q -235 519 -240 519 l -242 519 q -248 519 -250 520 q -254 523 -254 526 q -254 528 -254 529 q -254 533 -250 536 q -249 537 -246 537 q -243 538 -237 538 l -233 538 q -230 539 -227 539 q -224 539 -218 540 q -211 540 -200 542 q -188 543 -168 545 q -131 549 -94 553 q -58 557 -32 559 q -6 562 -3 562 q -3 562 -3 562 q -2 562 -2 563 q -2 563 -2 565 q -1 567 -1 571 q -1 574 0 580 q 0 585 0 593 q 2 624 5 650 q 8 677 10 692 q 12 702 15 711 q 18 720 21 725 q 28 734 36 734 q 41 734 45 731 q 48 729 49 725 q 49 722 49 721 q 49 715 48 706 q 47 693 45 680 q 43 667 39 646 q 36 628 32 609 q 29 590 27 578 q 25 565 25 564 l 28 564 q 32 564 39 565 q 83 568 144 571 q 204 573 317 574 q 351 575 366 575 q 380 576 387 578 q 392 579 396 579 l 397 579 q 401 578 403 574 q 405 571 405 569 q 405 564 399 562 q 397 561 396 561 q 396 561 394 561 l 392 561 q 383 563 371 564 q 359 565 337 565 q 314 565 272 565 q 209 565 170 564 q 132 563 89 561 q 76 560 61 559 q 46 558 35 557 q 24 556 23 556 l 23 553 q 22 547 21 538 q 12 468 12 405 q 12 372 15 340 q 31 155 97 97 q 119 80 139 80 q 147 80 155 83 q 170 87 185 102 q 222 138 254 224 q 263 250 270 272 q 277 294 284 322 l 285 326 q 287 333 288 337 q 289 341 290 344 q 291 346 291 347 q 292 348 292 348 q 292 349 293 349 q 293 349 294 348 q 294 348 295 347 q 295 346 293 337 q 291 328 288 316 q 285 304 282 294 q 261 218 233 162 q 201 97 165 80 q 158 76 153 75 q 148 74 140 73 q 134 73 131 73 q 127 74 124 75 z"},"M":{"x_min":0,"x_max":835,"ha":835,"o":"m 669 -140 q 663 -137 657 -124 q 651 -113 648 -102 q 645 -90 642 -73 q 639 -48 637 -24 q 635 0 633 46 q 632 63 632 108 q 632 154 632 204 q 632 255 633 288 q 634 369 636 413 q 636 416 636 419 q 640 529 640 600 q 640 659 637 691 q 632 761 616 798 q 606 820 593 828 q 586 831 580 831 q 540 831 479 735 q 438 667 401 570 q 356 449 328 310 q 321 279 316 256 q 311 234 310 229 q 303 207 295 202 q 294 202 292 201 q 291 201 289 201 q 275 201 271 227 q 267 247 264 286 q 262 326 261 406 q 260 471 260 506 q 259 541 258 557 q 257 574 256 585 q 251 628 244 630 q 243 631 240 631 q 237 631 234 630 q 201 609 154 507 q 85 344 55 137 q 51 110 49 89 q 47 67 46 30 q 45 20 45 12 q 44 4 44 3 q 43 -3 38 -3 q 32 -3 29 4 q 25 10 21 28 q 16 53 11 88 q 5 124 2 156 q -2 209 -5 258 q -8 306 -9 377 q -10 408 -10 444 q -10 480 -9 521 q -7 604 -5 638 q 0 684 12 697 q 19 703 26 703 l 27 703 q 35 702 40 695 q 41 693 41 692 q 41 691 41 688 q 42 686 42 682 l 42 680 q 42 675 42 671 q 42 668 42 667 q 41 666 41 661 q 40 656 40 649 q 40 645 39 637 q 38 625 37 613 q 24 472 21 388 q 19 325 19 271 q 19 241 20 213 q 21 190 22 164 q 23 138 25 119 q 26 102 28 83 q 30 63 32 50 q 34 36 35 35 l 35 38 q 35 40 36 44 q 39 112 54 193 q 88 371 145 504 q 152 521 163 542 q 173 564 181 577 q 220 645 245 645 l 246 645 q 259 643 267 627 q 270 621 272 615 q 274 609 275 602 q 281 580 283 542 q 284 527 284 514 q 285 501 285 477 q 285 452 286 401 l 286 397 q 286 344 286 318 q 286 291 286 277 q 287 264 288 251 q 289 242 289 237 q 290 231 291 231 q 293 231 313 311 q 361 504 415 625 q 477 767 538 820 q 544 826 550 829 q 555 833 561 835 q 573 841 583 841 q 605 841 623 814 q 641 785 651 732 q 656 703 658 677 q 660 651 660 607 q 661 588 661 561 q 661 535 660 501 q 659 434 656 359 q 655 311 653 195 q 653 152 654 103 q 655 54 657 24 q 662 -47 670 -77 q 672 -84 674 -92 q 676 -99 677 -104 q 679 -110 680 -111 q 680 -111 681 -112 q 682 -113 683 -113 q 684 -114 686 -115 q 687 -117 688 -118 q 689 -119 689 -120 q 689 -121 689 -123 q 689 -124 689 -126 q 689 -136 682 -140 q 679 -141 676 -141 q 673 -141 669 -140 z"},"g":{"x_min":0,"x_max":287,"ha":287,"o":"m -1 -230 q -12 -227 -23 -216 q -26 -213 -29 -210 q -32 -206 -34 -204 q -51 -178 -57 -134 q -59 -121 -59 -104 q -59 -86 -57 -72 q -46 26 10 115 q 35 155 78 203 l 81 206 l 80 229 q 79 239 79 254 q 78 268 78 280 q 76 307 75 322 q 75 336 74 343 q 74 348 74 350 l 73 352 q 73 352 71 347 q 70 342 68 335 q 57 300 50 282 q 42 263 35 253 q 29 244 21 240 q 16 238 11 238 q -3 238 -14 255 q -26 276 -26 309 l -26 314 q -25 346 -11 372 q -8 379 -5 383 q -2 388 2 394 q 13 406 24 411 q 35 416 43 416 q 46 416 48 416 q 55 414 61 410 q 67 407 70 401 l 72 399 l 73 404 q 75 413 81 415 q 83 417 86 417 q 88 417 89 417 q 94 416 97 412 q 103 405 105 381 q 105 374 105 347 q 105 321 105 291 q 104 260 104 241 q 104 230 104 230 q 104 230 107 232 q 109 234 112 237 q 159 281 214 312 q 227 320 243 328 q 260 336 274 343 q 288 349 293 350 q 295 350 295 349 q 296 349 296 349 q 296 348 296 347 q 296 347 296 346 q 295 346 291 344 q 287 342 281 339 q 210 310 146 258 q 127 243 112 228 l 103 219 l 103 194 q 102 181 102 167 q 102 149 100 97 q 99 63 96 25 q 93 -13 90 -39 q 73 -179 36 -218 q 22 -231 7 -231 q 3 -231 -1 -230 z m 19 256 q 34 265 50 307 q 54 316 58 327 q 62 338 65 348 q 68 357 68 359 q 69 365 69 370 q 69 375 68 381 q 66 392 62 397 q 60 400 57 400 q 54 400 53 400 q 50 400 47 399 q 35 395 22 373 q 9 352 2 325 q -3 305 -3 290 q -3 272 3 261 q 8 254 13 254 q 16 254 19 256 z m 18 -217 q 23 -214 29 -208 q 35 -203 39 -196 q 77 -133 82 52 q 83 68 83 97 q 83 125 82 151 q 82 177 81 188 l 81 196 l 76 190 q 3 108 -28 18 q -45 -31 -49 -82 q -49 -88 -49 -97 l -49 -105 q -49 -119 -48 -129 q -46 -144 -42 -158 q -39 -173 -34 -184 q -20 -212 0 -218 q 3 -219 7 -219 q 13 -219 18 -217 z"},"j":{"x_min":0,"x_max":244,"ha":244,"o":"m -86 -271 q -110 -266 -126 -235 q -133 -222 -137 -207 q -142 -191 -145 -170 q -146 -165 -146 -160 q -146 -156 -146 -149 q -146 -142 -146 -127 q -146 -113 -146 -106 q -146 -99 -146 -94 q -146 -89 -145 -83 q -137 -24 -115 28 q -111 37 -104 51 q -97 65 -91 75 q -60 130 -4 187 l 4 196 l 4 243 q 3 275 3 296 q 2 316 0 344 q 0 365 0 379 q 0 394 0 401 q 3 418 14 421 q 16 421 17 421 q 19 421 21 420 q 22 420 24 419 q 25 418 26 417 q 30 414 32 402 q 34 390 35 364 l 35 351 q 35 336 35 313 q 34 279 32 237 l 32 233 q 31 228 31 225 l 31 221 l 35 224 q 38 227 43 231 q 80 262 121 287 q 143 299 172 314 q 201 329 224 339 q 247 349 251 349 l 252 349 q 252 349 253 348 q 253 347 253 347 q 253 346 252 345 q 250 345 247 343 q 244 342 237 339 q 218 331 183 313 q 148 295 124 281 q 75 251 36 217 l 31 212 l 29 187 q 24 81 15 -21 q 14 -39 11 -63 q 8 -87 4 -108 q -8 -186 -30 -228 q -44 -255 -60 -265 q -66 -269 -72 -270 q -78 -271 -82 -271 q -84 -271 -86 -271 z m 12 499 q 9 499 7 501 q 4 503 3 506 q 2 507 2 509 q 1 511 1 514 q 1 517 2 518 q 2 520 3 521 q 8 527 12 528 q 16 528 17 528 q 22 528 26 525 q 29 522 30 520 q 31 517 31 513 q 31 506 26 502 q 21 498 16 498 q 14 498 12 499 z m -69 -256 q -65 -254 -59 -249 q -54 -244 -50 -239 q -25 -205 -12 -128 q -2 -69 2 42 q 3 62 4 91 q 4 120 5 145 q 5 169 4 178 l 4 187 l -4 179 q -52 127 -83 76 q -139 -23 -139 -124 l -139 -131 q -138 -149 -136 -162 q -135 -176 -131 -191 q -117 -246 -88 -258 q -85 -259 -82 -259 l -79 -259 q -74 -258 -69 -256 z"},"i":{"x_min":0,"x_max":297,"ha":297,"o":"m 83 229 q 28 237 4 293 q -6 318 -9 346 q -10 352 -10 359 l -10 368 q -9 381 -8 387 q -4 403 4 408 q 7 410 10 410 q 13 410 15 409 q 20 407 21 401 q 21 401 21 399 q 21 398 21 396 q 21 392 20 386 q 17 373 16 364 q 15 356 14 346 l 14 339 q 14 288 42 260 q 63 240 96 237 q 101 237 105 237 q 156 237 215 276 q 250 299 287 334 q 293 340 297 344 q 300 347 302 348 q 303 349 304 349 l 305 349 q 307 349 307 348 q 307 347 304 344 q 301 340 295 334 q 251 292 215 267 q 169 237 121 229 q 117 229 111 229 q 105 229 102 229 l 94 229 q 87 229 83 229 z m 20 502 q 18 503 15 505 q 13 507 11 510 q 10 511 9 513 q 9 515 9 518 q 9 521 9 522 q 10 524 12 526 q 16 532 19 532 q 23 533 24 533 q 30 533 34 529 q 37 526 38 524 q 39 521 39 518 q 39 510 34 506 q 29 502 23 502 q 22 502 20 502 z"},"y":{"x_min":0,"x_max":329,"ha":329,"o":"m 38 -250 q 37 -250 34 -249 q 31 -248 28 -247 q 1 -232 -12 -185 q -17 -168 -18 -156 q -20 -144 -20 -125 l -20 -117 q -20 -85 -13 -54 q 16 83 121 193 l 130 202 l 129 219 q 129 226 128 233 q 128 241 127 245 q 127 250 127 259 q 126 269 126 279 q 125 316 121 346 q 121 352 120 358 q 119 365 119 369 q 119 373 119 378 l 116 370 q 113 361 110 348 q 100 315 94 298 q 89 282 83 271 q 65 235 45 235 q 42 235 40 236 q 35 237 31 239 q 28 241 24 245 q 0 274 0 351 l 0 357 q 0 372 1 379 q 2 386 3 391 q 8 403 13 406 q 19 409 22 409 q 26 409 30 406 q 35 402 35 392 q 35 383 31 370 q 20 333 20 305 q 20 279 29 260 q 37 245 47 245 q 57 245 71 264 q 79 274 86 293 q 93 312 104 349 q 107 358 110 369 q 112 377 114 382 q 116 389 118 394 q 119 397 119 399 q 122 411 132 412 l 134 412 q 145 412 149 398 q 152 388 153 379 q 153 369 153 345 q 153 333 153 317 q 152 302 152 292 q 151 282 151 269 q 150 255 150 245 l 150 222 l 155 227 q 201 269 257 308 q 282 324 297 333 q 312 341 326 346 q 333 349 334 349 q 336 349 337 349 q 338 349 338 349 q 338 348 338 347 q 337 346 336 345 q 334 344 331 343 q 298 331 241 290 q 221 275 197 256 q 173 237 156 220 l 149 214 l 149 197 q 149 192 149 183 q 148 173 148 163 l 148 149 q 145 -15 125 -110 q 105 -206 73 -237 q 59 -251 44 -251 q 41 -251 38 -250 z m 56 -237 q 84 -221 104 -156 q 131 -48 131 93 q 131 102 131 119 q 131 135 131 152 q 130 169 130 181 q 130 193 130 194 q 129 194 123 188 q 117 182 109 173 q 102 164 96 157 q 0 39 -11 -95 q -12 -103 -12 -113 l -12 -124 q -11 -141 -10 -151 q -8 -161 -5 -172 q -2 -183 0 -190 q 16 -230 39 -239 q 40 -239 42 -239 q 44 -239 46 -239 q 49 -239 51 -239 q 53 -238 56 -237 z"},"@":{"x_min":0,"x_max":531,"ha":531,"o":"m 164 23 q 116 28 75 63 q 34 99 8 155 q -9 199 -14 249 q -15 259 -15 271 q -15 311 -5 354 q 29 487 130 569 q 175 605 228 621 q 245 625 263 628 q 270 629 279 629 l 286 629 q 301 629 310 627 q 358 620 388 589 q 433 542 433 443 q 433 400 426 368 q 405 266 357 239 q 346 234 335 234 q 317 234 300 248 q 275 269 254 334 l 249 348 l 247 348 q 245 348 245 348 q 244 347 244 345 q 241 334 235 315 q 229 297 225 287 q 210 249 188 248 l 188 248 q 160 248 151 288 q 150 295 150 308 q 150 321 151 329 q 155 354 163 372 q 177 402 202 413 q 205 414 208 415 q 210 415 215 415 q 218 415 220 415 q 222 415 224 415 q 226 414 228 413 q 231 412 235 408 q 239 404 242 400 q 242 399 243 399 q 243 398 244 397 l 244 397 q 244 397 245 398 q 245 399 246 400 q 251 412 262 412 l 263 412 q 270 411 273 405 q 274 404 274 401 q 275 397 275 394 q 276 389 277 381 q 278 373 280 364 q 293 280 315 261 q 326 250 338 250 q 342 250 346 251 q 389 268 412 354 q 423 403 423 447 q 423 495 410 537 q 407 543 403 552 q 398 562 395 567 q 373 601 331 614 q 311 621 289 621 q 263 621 235 612 q 184 597 136 557 q 128 549 115 537 q 103 524 96 516 q 35 442 14 349 q 6 313 6 278 q 6 251 10 225 q 22 160 60 108 q 104 51 160 38 q 163 38 166 37 q 169 37 173 37 q 178 37 186 37 q 194 37 199 37 q 203 37 207 37 q 210 38 214 38 q 248 45 272 62 q 275 64 280 68 q 284 72 288 76 q 293 82 296 84 q 298 86 300 86 q 301 86 302 85 q 304 84 304 83 q 304 82 302 80 q 301 78 298 74 q 280 53 254 40 q 246 36 239 33 q 231 31 222 28 q 208 25 196 24 q 185 22 177 22 q 170 22 164 23 z m 195 275 q 213 289 232 339 q 236 352 238 357 q 239 363 239 370 l 239 373 q 239 384 236 393 q 232 402 225 403 q 206 402 189 352 q 180 323 180 301 q 180 290 183 281 q 184 273 186 273 q 188 272 188 272 q 191 272 195 275 z"},".":{"x_min":0,"x_max":126,"ha":126,"o":"m 60 246 q 53 248 51 252 q 49 257 49 260 q 49 263 50 266 q 54 273 58 274 q 62 274 62 274 q 70 274 75 269 q 78 265 78 263 q 78 261 78 260 q 78 256 76 253 q 73 249 70 247 q 66 245 63 245 q 62 245 60 246 z"},"p":{"x_min":0,"x_max":264,"ha":264,"o":"m 20 -198 q 7 -185 -5 -74 q -10 -25 -12 21 q -15 66 -15 129 q -15 271 -4 364 q -1 396 4 411 q 9 425 17 429 q 20 430 23 430 q 26 430 29 429 q 35 426 35 420 q 35 417 34 413 q 34 409 33 405 q 33 401 32 401 q 32 399 29 384 q 27 369 24 349 q 21 330 20 315 q 18 300 18 299 l 19 301 q 20 303 21 307 q 42 367 79 404 q 92 417 106 424 q 113 427 118 428 q 123 430 127 430 l 131 430 q 135 429 138 429 q 140 428 144 427 q 159 419 166 398 q 167 393 167 386 l 167 380 q 167 369 165 361 q 154 314 118 277 q 87 247 51 237 q 33 233 21 233 q 16 233 12 234 q 11 234 11 234 q 10 234 10 233 q 10 231 10 229 q 7 204 6 185 q 5 165 4 137 q 3 120 3 97 q 2 74 2 59 l 2 29 q 2 0 3 -15 q 9 -120 19 -169 q 21 -186 25 -191 q 26 -193 27 -194 q 28 -196 28 -196 q 28 -199 26 -199 q 24 -200 24 -200 q 21 -200 20 -198 z m 29 245 q 64 252 91 275 q 123 305 139 354 q 146 375 146 391 l 146 395 q 146 404 144 409 q 143 414 139 417 q 136 420 132 421 q 128 422 123 422 q 106 421 85 401 q 42 358 21 283 q 21 279 19 273 q 18 267 16 260 q 15 253 14 250 q 14 246 14 245 l 14 244 l 19 244 q 23 244 29 245 z"},"X":{"x_min":0,"x_max":691,"ha":691,"o":"m 1 -134 q -5 -132 -8 -126 q -10 -123 -10 -120 q -10 -117 -8 -111 q -5 -106 0 -96 q 19 -58 53 1 q 87 61 125 122 q 129 128 133 133 q 147 157 156 171 q 166 185 180 207 q 182 210 184 213 q 187 218 189 221 l 191 224 l 191 225 q 191 226 186 232 q 125 306 85 438 q 48 553 38 658 q 37 668 37 691 q 37 701 37 706 q 37 711 37 714 q 38 717 38 720 q 42 740 52 746 q 57 749 62 749 q 72 749 80 733 q 83 725 83 722 q 83 716 76 713 l 73 712 l 73 695 q 73 577 104 454 q 109 432 113 418 q 117 404 124 386 q 143 329 168 285 q 173 276 181 265 q 188 254 194 246 q 200 239 201 239 q 201 239 205 245 q 209 251 215 260 q 327 424 455 582 q 498 634 532 674 q 566 714 604 757 q 612 766 621 776 q 636 793 646 804 q 657 817 664 824 q 670 830 673 832 q 676 834 680 834 q 687 834 689 831 q 691 827 691 824 q 691 822 690 819 q 688 815 685 812 q 683 810 680 809 q 676 808 643 775 q 623 757 594 726 q 565 694 539 663 q 412 513 301 354 q 287 334 264 299 q 240 264 226 241 l 213 223 l 221 215 q 277 158 348 147 q 359 146 375 146 q 390 146 401 148 q 442 154 481 175 q 492 181 500 186 q 507 190 516 197 q 526 204 542 216 q 561 230 572 240 q 583 249 593 259 q 599 266 603 269 q 607 272 609 273 q 612 274 615 274 q 619 274 621 272 q 623 270 623 267 l 622 265 q 620 259 606 251 q 595 244 583 236 q 571 228 549 210 q 542 206 535 200 q 528 195 523 191 q 518 188 517 188 l 515 187 q 513 185 509 183 q 508 183 506 182 q 461 152 419 143 q 394 136 369 136 q 347 136 325 141 q 301 146 276 158 q 242 175 212 204 l 206 210 l 199 200 q 172 157 141 104 q 110 51 85 5 q 82 -1 80 -6 q 76 -14 73 -19 q 70 -24 69 -27 q 67 -30 67 -31 q 66 -33 66 -34 q 66 -35 66 -36 l 66 -37 q 66 -39 66 -40 q 65 -41 65 -43 q 64 -44 62 -47 q 61 -48 60 -50 q 46 -72 29 -106 q 23 -117 20 -123 q 17 -128 14 -131 q 12 -133 9 -134 q 7 -134 5 -134 q 3 -134 1 -134 z"},"*":{"x_min":0,"x_max":279,"ha":279,"o":"m 136 447 q 134 448 132 450 q 130 453 129 455 q 124 473 124 521 q 124 528 124 533 q 124 539 124 539 q 123 539 119 534 q 114 530 108 524 q 101 517 95 510 q 89 504 85 500 q 79 493 76 490 q 73 486 72 484 q 71 482 71 481 q 70 480 68 478 q 66 476 64 474 q 62 472 60 471 q 58 470 56 470 q 54 470 52 472 q 49 474 49 477 q 49 478 49 479 q 50 481 52 484 q 54 487 57 489 q 59 492 60 492 q 61 492 65 496 q 70 500 77 507 q 84 514 90 520 q 102 531 119 547 l 120 547 q 123 551 124 552 q 124 553 124 554 q 124 556 122 559 q 118 562 109 569 q 95 583 87 590 q 79 597 74 601 q 69 604 64 608 q 56 614 54 617 q 52 620 52 622 q 52 624 53 626 q 56 630 58 630 q 60 631 61 631 q 64 631 68 628 q 70 627 78 619 q 87 611 98 600 l 124 573 l 125 584 q 125 610 130 652 l 133 679 l 130 680 q 129 682 129 686 l 129 688 q 129 693 132 697 q 134 702 138 702 q 139 702 141 700 q 143 698 143 688 q 143 682 142 673 q 140 635 139 618 q 138 601 138 588 q 137 580 137 573 q 137 566 137 565 l 137 562 l 144 568 q 152 576 167 588 q 182 600 192 609 q 197 612 201 616 q 206 620 208 622 q 214 628 216 629 q 218 629 220 629 q 222 629 224 627 q 225 626 225 624 q 226 622 225 620 q 224 620 221 618 q 219 616 216 614 q 191 599 151 564 l 142 557 l 144 554 q 146 552 153 546 q 160 540 168 533 q 177 525 184 520 q 203 505 220 495 q 224 492 226 491 q 229 489 229 488 q 230 487 230 485 q 230 480 225 479 l 224 479 q 219 479 208 488 q 206 490 198 496 q 190 502 181 510 q 170 519 160 527 q 152 533 148 537 q 146 539 144 541 q 141 542 139 544 l 137 545 q 136 545 136 537 q 136 528 136 517 q 137 506 138 497 q 139 482 140 473 q 142 463 144 460 q 146 458 146 455 l 146 454 q 146 450 143 448 q 141 447 139 447 q 137 447 136 447 z"},"Y":{"x_min":0,"x_max":802,"ha":802,"o":"m 417 -229 q 407 -226 399 -216 q 378 -195 373 -152 q 372 -146 372 -137 q 372 -128 372 -123 l 372 -110 q 373 -99 373 -92 q 385 -5 441 92 q 468 138 504 185 q 540 232 573 266 l 584 278 l 584 292 q 584 305 583 323 q 583 341 582 357 q 580 382 579 395 q 578 408 577 420 l 577 422 q 575 445 572 465 q 570 484 566 512 q 540 690 508 739 q 505 744 500 748 q 496 753 493 755 q 491 756 489 756 q 487 756 483 756 q 480 756 478 756 q 477 756 475 756 q 474 755 471 754 l 471 754 q 445 742 403 680 q 384 651 362 610 q 339 569 300 493 q 257 410 243 384 q 241 380 237 374 l 235 369 q 225 352 213 333 q 201 313 192 301 q 170 270 151 250 q 125 224 99 218 q 93 216 86 216 l 83 216 q 75 217 68 219 q 6 243 -7 382 q -10 409 -10 448 q -10 568 21 691 q 24 705 30 724 q 36 743 41 756 q 61 809 81 829 q 98 848 115 848 q 119 848 122 847 q 135 843 140 832 q 142 829 142 826 q 143 824 143 818 q 143 815 143 810 q 143 805 143 800 q 142 792 141 789 q 140 786 137 785 q 135 785 134 785 q 128 785 126 791 l 125 794 q 124 798 122 801 q 121 804 121 804 q 120 804 117 800 q 114 795 110 788 q 105 782 102 775 q 65 712 41 617 q 13 505 13 410 q 13 389 14 377 q 15 365 17 346 q 25 289 46 258 q 47 256 50 253 q 52 251 54 249 l 56 247 q 66 236 78 234 q 83 232 87 232 q 91 232 96 234 q 146 243 217 358 q 232 384 252 420 q 272 457 307 523 q 345 598 371 642 q 397 687 419 717 q 459 771 489 771 q 495 771 500 769 q 511 766 520 756 q 546 729 564 663 q 584 591 597 485 q 606 397 606 308 q 606 248 602 188 q 589 20 542 -100 q 501 -200 454 -225 q 447 -229 442 -230 q 437 -231 431 -231 q 426 -231 424 -230 q 421 -230 417 -229 z m 441 -213 q 482 -199 519 -118 q 539 -71 553 -16 q 558 3 561 19 q 564 35 568 58 q 574 89 576 113 q 579 138 581 169 q 582 179 583 186 q 583 193 583 195 q 583 197 584 208 q 584 219 584 233 q 584 247 584 257 q 584 267 584 268 q 584 268 577 261 q 571 254 562 244 q 553 234 545 225 q 490 157 451 90 q 398 -4 389 -91 q 388 -102 388 -118 q 388 -134 389 -144 q 396 -203 424 -213 q 428 -214 433 -214 q 438 -214 441 -213 z"},"c":{"x_min":0,"x_max":320,"ha":320,"o":"m 93 203 q 21 211 -2 278 q -10 302 -10 326 q -10 358 4 390 q 19 420 42 431 q 46 433 50 434 q 54 435 59 435 q 84 435 88 400 l 88 395 q 88 384 85 372 q 83 363 81 362 q 80 360 79 360 q 77 360 75 361 q 74 362 74 363 q 74 364 74 365 l 74 367 q 74 370 75 375 q 78 385 78 396 l 78 399 q 78 412 75 417 q 73 419 71 421 q 68 422 66 422 q 57 422 45 404 q 30 378 25 354 q 21 330 21 314 q 21 299 23 285 q 32 244 68 226 q 86 217 108 216 l 113 216 q 145 216 182 232 q 253 264 316 336 q 320 341 324 345 q 327 349 328 349 l 329 349 l 330 348 q 330 348 330 347 q 330 346 329 345 q 329 344 327 342 q 326 340 323 336 q 322 335 321 334 q 300 309 271 282 q 241 256 212 239 q 152 203 103 203 q 98 203 93 203 z"},"!":{"x_min":0,"x_max":153,"ha":153,"o":"m 70 73 q 67 75 66 81 q 64 86 62 98 q 54 165 49 290 q 49 315 49 352 q 49 390 49 414 l 49 462 q 49 510 49 529 q 54 649 62 696 q 68 734 81 739 q 85 741 89 741 q 98 741 104 731 q 104 730 104 729 q 104 728 104 725 q 104 723 104 718 q 104 713 104 708 q 104 702 102 691 q 100 679 97 657 q 71 498 67 316 q 66 298 66 268 q 66 237 67 208 q 67 178 67 164 q 71 86 77 80 q 78 79 78 77 q 79 76 79 75 q 79 72 77 72 q 75 71 74 71 q 72 71 70 73 z m 75 -41 q 68 -39 66 -34 q 64 -29 64 -26 q 64 -23 65 -21 q 69 -13 73 -12 q 77 -12 78 -12 q 84 -12 90 -18 q 92 -21 93 -25 q 93 -30 91 -33 q 88 -38 85 -39 q 81 -41 79 -41 q 77 -41 75 -41 z"},"/":{"x_min":0,"x_max":659,"ha":659,"o":"m 50 -45 q 49 -45 49 -45 q 49 -44 49 -44 q 49 -43 52 -37 q 56 -31 62 -22 q 66 -16 71 -8 q 79 6 85 16 q 137 98 228 235 q 290 327 336 395 q 383 462 440 543 q 449 556 460 572 q 472 588 480 600 q 562 715 579 734 q 584 741 588 743 q 591 746 595 746 l 597 746 q 603 746 606 742 q 610 738 610 732 q 610 727 607 720 q 601 705 578 676 q 575 672 563 658 q 552 644 538 627 q 458 529 400 455 q 342 380 286 301 q 241 238 186 156 q 130 74 88 7 q 76 -12 66 -27 q 55 -42 53 -45 q 53 -46 52 -46 l 51 -46 q 50 -46 50 -45 z"},"[":{"x_min":0,"x_max":353,"ha":353,"o":"m 54 -107 q 51 -105 51 -102 q 51 -101 51 -100 q 52 -96 58 -93 q 59 -93 62 -93 q 65 -92 69 -91 q 71 -91 74 -90 q 76 -90 78 -90 q 82 -89 85 -89 q 87 -88 89 -88 q 90 -88 90 -87 q 90 -87 90 -86 l 90 -85 q 89 -85 89 -83 q 89 -81 88 -78 q 88 -76 88 -75 q 84 -55 81 -9 q 78 38 76 93 q 73 174 73 247 q 73 320 73 340 q 73 438 75 502 q 78 575 82 644 q 83 659 84 683 q 85 694 85 705 q 89 761 91 771 q 91 772 91 773 q 91 774 91 775 l 91 776 l 90 776 q 89 776 88 775 q 86 775 85 774 q 83 773 82 773 q 80 772 78 772 q 75 772 72 771 q 68 771 65 771 q 62 770 61 770 q 59 770 58 770 l 56 770 q 51 771 49 775 q 49 777 49 778 q 49 779 50 781 q 51 783 53 785 q 56 786 61 787 q 67 788 78 788 q 88 789 92 790 q 95 790 95 791 q 95 792 96 794 q 97 796 99 799 q 100 801 102 802 q 106 809 115 809 q 126 809 131 797 l 132 794 l 139 794 q 142 794 147 795 q 153 795 160 796 q 167 796 175 797 q 184 797 191 798 q 200 798 216 799 q 232 799 246 799 q 259 799 267 799 q 275 799 281 799 q 294 799 297 798 q 302 797 303 795 q 304 792 304 791 q 304 789 302 787 q 299 784 297 784 q 295 784 292 786 q 289 789 274 790 q 259 791 242 791 l 231 791 q 187 790 142 784 l 135 784 l 134 770 q 134 763 133 756 q 133 748 132 742 q 131 737 131 731 q 130 725 128 712 q 126 699 123 673 q 122 666 121 657 q 107 561 100 483 q 93 406 89 322 q 86 234 86 153 q 86 71 89 -4 q 91 -52 95 -74 q 96 -80 97 -83 q 97 -85 98 -86 q 99 -87 99 -87 q 100 -87 105 -86 q 110 -85 117 -85 q 182 -77 257 -74 q 271 -73 277 -73 q 284 -73 287 -73 q 290 -73 292 -73 q 296 -73 298 -74 q 300 -75 301 -77 q 302 -79 302 -81 q 302 -83 301 -85 q 300 -86 299 -86 q 297 -87 293 -87 q 289 -87 282 -86 q 269 -85 251 -85 q 218 -85 171 -90 q 117 -95 72 -106 q 63 -108 61 -108 q 59 -108 58 -108 q 55 -108 54 -107 z"},"6":{"x_min":0,"x_max":445,"ha":445,"o":"m 159 -9 q 116 -4 83 24 q 15 88 15 227 q 15 264 20 307 q 33 407 69 499 q 106 591 157 653 q 186 688 213 702 q 229 709 242 709 q 249 709 255 707 q 268 702 271 689 q 272 686 272 682 q 272 676 268 673 q 265 671 263 671 q 258 671 254 677 q 253 678 252 679 q 251 680 251 680 l 250 680 q 245 680 235 674 q 224 666 210 653 q 130 574 76 431 q 40 335 32 241 q 32 227 32 209 q 32 191 32 178 q 39 100 72 55 l 77 48 l 77 55 q 77 74 84 106 q 92 139 104 173 q 133 253 183 313 q 194 326 208 340 q 223 354 236 364 q 276 393 316 402 q 324 403 333 404 q 342 404 347 404 q 351 404 354 404 q 419 391 430 314 q 431 306 431 294 q 431 283 430 274 q 420 181 347 92 q 338 82 323 67 q 309 52 299 44 q 247 2 195 -7 q 191 -7 186 -8 q 180 -8 174 -9 q 169 -9 167 -9 l 166 -9 z m 185 3 q 279 16 358 117 q 415 193 423 274 q 424 285 424 298 q 423 312 422 321 q 414 359 390 379 q 373 395 342 395 q 333 395 326 394 q 319 393 310 391 q 271 379 232 349 q 135 267 92 106 q 84 76 84 58 l 84 54 q 85 45 86 41 q 88 37 93 32 q 109 17 133 9 q 152 3 171 3 q 178 3 185 3 z"},"r":{"x_min":0,"x_max":218,"ha":218,"o":"m 14 245 q 12 247 10 249 q 7 252 6 255 q -2 279 -8 342 q -9 350 -10 359 q -10 368 -10 374 l -9 384 q -9 395 -8 398 q -6 407 -2 411 q 2 417 8 417 q 11 417 15 415 q 20 412 21 400 q 22 396 22 392 q 22 388 21 380 q 20 372 18 357 q 15 326 15 302 q 15 294 15 287 q 17 266 18 263 q 19 263 21 269 q 23 275 29 291 q 47 342 68 370 q 74 376 82 384 q 90 392 95 395 q 101 398 106 398 q 112 398 118 394 q 120 390 120 388 q 120 386 119 384 q 116 382 111 382 q 108 382 105 383 q 104 383 102 383 q 90 383 79 371 q 52 344 32 270 q 30 264 29 259 q 27 254 26 252 q 21 245 16 245 q 15 245 14 245 z"},"2":{"x_min":0,"x_max":389,"ha":389,"o":"m 37 6 q 31 8 31 17 q 31 19 31 20 q 32 21 33 24 q 34 26 36 30 q 40 38 55 64 q 71 90 89 120 q 89 121 90 121 q 102 141 119 168 q 135 195 169 251 q 252 387 294 471 q 344 572 348 624 q 348 628 348 632 q 348 657 335 669 q 324 680 302 681 l 297 681 q 266 681 223 661 q 176 640 131 603 q 90 568 63 531 q 36 494 33 471 l 33 463 q 34 461 36 460 q 42 457 42 451 l 42 450 q 42 443 34 440 q 33 440 31 440 q 23 440 18 452 q 16 454 15 457 q 15 459 15 464 q 15 468 15 471 q 15 475 16 478 q 24 508 59 549 q 93 590 140 626 q 221 685 288 695 q 293 695 300 695 l 308 695 q 319 695 326 693 q 365 683 374 639 q 375 632 375 619 q 375 606 374 597 q 368 559 346 509 q 316 438 216 285 q 208 273 200 261 q 192 249 188 242 q 184 235 177 226 q 171 216 166 208 q 119 136 90 87 q 60 39 60 35 q 61 36 65 39 q 70 42 77 46 q 175 109 254 120 q 265 121 281 121 q 296 121 308 120 q 339 114 339 105 q 339 104 338 102 q 336 101 335 101 q 334 101 333 101 q 331 102 329 104 q 323 106 315 107 q 308 108 291 108 q 275 108 265 107 q 255 106 243 104 q 196 95 154 73 q 137 64 119 53 q 102 42 77 24 q 64 15 56 10 q 49 5 46 5 q 44 4 43 4 q 40 4 37 6 z"},"{":{"x_min":0,"x_max":291,"ha":291,"o":"m 139 -132 q 112 -129 96 -105 q 78 -76 78 -23 q 78 -7 80 11 q 82 38 88 68 q 94 98 108 154 q 119 197 123 217 q 127 236 129 253 q 130 264 130 272 q 130 285 128 294 q 122 320 86 320 q 83 320 76 320 q 70 320 65 320 l 52 319 l 51 321 q 49 324 49 326 l 49 327 q 50 331 53 332 q 60 335 73 355 q 86 375 99 401 q 126 459 134 505 q 135 511 135 517 q 135 522 135 535 q 135 544 135 549 q 135 553 135 557 q 134 561 133 565 q 131 577 128 588 q 125 600 119 615 q 113 635 109 645 q 106 655 104 662 q 103 668 102 675 q 102 680 102 688 l 102 695 q 102 706 103 713 q 109 739 125 762 q 146 794 174 814 q 201 833 220 833 q 222 833 224 833 q 236 831 240 821 q 242 816 242 809 l 242 806 q 242 796 238 788 q 236 782 233 782 q 233 782 232 783 q 230 783 230 784 q 229 785 229 787 q 229 789 229 792 l 229 796 q 229 813 225 814 q 224 814 221 814 q 217 814 211 812 q 201 809 189 801 q 166 783 149 760 q 133 736 128 713 q 126 705 126 697 q 126 689 128 681 q 131 665 143 636 q 155 609 160 590 q 166 571 167 553 q 167 548 167 543 q 167 502 147 454 q 134 425 115 392 q 95 359 77 337 l 75 334 l 90 334 q 102 334 107 334 q 112 333 119 331 q 163 316 163 257 q 163 248 162 239 q 159 220 154 197 q 148 173 133 127 q 119 80 113 54 q 106 29 103 7 q 101 -7 100 -16 q 100 -25 100 -33 l 100 -41 q 100 -59 102 -70 q 104 -82 109 -92 q 111 -96 113 -99 q 115 -102 119 -105 q 126 -112 135 -115 q 144 -119 157 -119 q 188 -119 212 -102 q 218 -99 220 -99 l 220 -99 q 222 -99 222 -100 q 223 -102 223 -103 l 223 -104 q 222 -106 216 -111 q 209 -115 201 -119 q 179 -130 158 -132 q 153 -133 152 -133 q 150 -133 148 -133 l 146 -133 q 143 -133 139 -132 z"},"9":{"x_min":0,"x_max":375,"ha":375,"o":"m 328 -13 q 327 -12 326 -10 q 324 -8 323 -6 q 316 9 309 53 q 302 98 297 159 q 294 201 293 235 q 293 269 293 282 q 293 321 294 355 q 294 356 294 358 q 294 366 295 377 q 295 387 296 396 q 297 440 300 491 q 301 501 301 510 q 302 520 302 522 l 302 529 l 297 513 q 263 416 225 338 q 199 287 174 255 q 168 249 160 240 q 151 232 146 228 q 139 223 130 218 q 121 213 114 211 q 107 210 101 210 q 96 210 93 210 q 88 210 83 210 q 62 215 47 230 q 23 253 16 303 q 15 312 15 324 q 15 335 15 343 l 15 356 q 16 375 18 391 q 20 406 24 425 q 45 524 100 603 q 146 667 196 692 q 218 704 241 704 q 269 704 290 685 q 304 671 312 653 q 312 650 313 649 q 314 648 314 648 l 315 649 q 315 650 315 652 q 315 654 315 656 q 321 694 333 708 q 339 715 346 715 q 354 714 358 708 q 359 707 360 705 q 360 704 360 702 l 360 700 q 360 694 359 681 q 357 664 354 643 q 336 544 328 478 q 319 412 315 345 q 310 273 310 209 q 310 155 313 106 q 319 41 326 12 q 329 4 330 0 q 332 -3 334 -6 q 336 -9 336 -11 q 336 -13 335 -14 q 333 -15 333 -15 l 332 -15 q 330 -14 328 -13 z m 108 228 q 129 233 153 259 q 176 281 199 319 q 216 347 236 390 q 256 432 273 475 l 276 481 q 277 486 278 488 q 286 507 294 531 q 302 554 305 568 q 306 571 306 578 q 307 585 307 590 q 307 594 306 599 q 306 609 305 615 q 299 648 287 666 q 284 669 279 674 q 274 678 270 681 q 269 682 266 683 q 263 684 261 685 q 257 686 254 687 q 251 687 246 687 q 241 687 239 687 q 236 686 231 685 q 208 677 180 651 q 130 603 90 525 q 50 445 40 362 q 39 357 39 346 q 39 335 39 324 q 39 313 39 309 q 44 259 67 239 q 71 235 77 232 q 83 229 87 227 q 90 227 94 227 l 97 227 q 103 227 108 228 z"}," ":{"x_min":0,"x_max":244,"ha":244,"o":""},"I":{"x_min":0,"x_max":361,"ha":361,"o":"m -4 -103 q -10 -101 -10 -95 q -9 -91 -8 -89 q -6 -87 -1 -86 q 3 -84 13 -82 q 72 -65 162 -51 q 164 -51 165 -51 q 166 -50 166 -50 q 165 -49 164 -46 q 164 -43 163 -40 q 142 40 132 195 q 127 279 127 366 q 127 434 130 503 q 131 512 131 522 q 132 532 132 539 q 132 540 132 541 q 135 591 140 651 q 146 710 150 742 q 151 747 152 754 q 154 762 156 768 q 157 774 158 777 l 159 777 q 159 778 158 778 q 158 778 156 778 q 154 778 150 777 q 146 777 139 775 q 117 772 94 768 q 71 763 54 759 q 38 755 35 754 q 34 753 32 752 q 30 752 25 751 q 22 751 20 751 q 17 750 15 750 q 11 750 9 750 q 3 750 0 752 q 0 753 -1 754 q -2 756 -2 757 q -3 758 -3 759 q -3 760 -3 761 q -2 762 -2 763 q -1 765 0 766 q 1 767 3 768 q 4 769 18 771 q 31 772 64 777 q 89 780 111 782 q 133 785 141 786 q 147 787 151 787 q 160 788 162 788 q 162 788 163 789 q 164 790 164 791 q 166 793 168 795 q 171 797 174 798 l 176 798 q 182 798 186 793 l 188 791 l 201 792 q 217 793 233 794 q 247 795 270 796 q 289 797 299 798 q 309 799 314 800 q 319 800 322 801 q 328 803 331 803 q 334 803 336 802 q 340 800 340 795 l 340 794 q 340 789 335 787 q 333 786 332 786 q 330 786 327 787 q 318 790 295 790 q 271 790 230 787 q 223 786 213 785 q 204 784 197 783 q 190 783 189 783 q 189 782 189 777 q 189 774 188 770 l 188 770 q 188 764 188 760 q 188 755 187 753 q 187 750 184 729 q 182 717 180 703 q 177 683 174 665 q 172 646 170 637 q 163 580 156 518 q 150 457 148 411 q 148 404 147 393 q 147 382 146 372 q 146 345 146 310 q 146 275 146 260 q 146 230 146 209 q 150 98 164 7 q 167 -14 171 -30 q 174 -46 176 -49 q 177 -49 183 -48 q 190 -47 200 -46 q 210 -45 227 -43 q 243 -41 257 -40 q 281 -36 296 -35 q 316 -32 325 -31 q 333 -30 339 -29 l 344 -28 q 348 -27 350 -27 q 353 -27 353 -27 q 356 -27 359 -30 q 361 -32 361 -35 q 361 -37 360 -39 q 359 -41 357 -42 q 354 -43 333 -43 q 291 -44 205 -58 q 203 -58 202 -58 q 195 -59 191 -60 q 187 -60 185 -61 q 184 -61 183 -62 q 181 -63 179 -63 q 177 -63 176 -63 q 175 -63 173 -63 l 172 -63 q 171 -63 164 -64 q 156 -65 136 -69 q 88 -79 36 -94 q 21 -98 12 -100 q 4 -103 2 -103 q 0 -103 -1 -103 q -3 -103 -4 -103 z"},"H":{"x_min":0,"x_max":952,"ha":952,"o":"m 689 -134 q 687 -133 684 -129 q 682 -125 680 -119 q 675 -105 670 -61 q 666 -17 664 42 q 660 122 660 249 l 660 318 l 652 317 q 650 317 640 317 q 629 317 616 316 l 606 316 q 506 312 394 304 q 363 302 326 299 q 289 295 261 293 q 233 291 230 290 l 230 281 q 229 271 229 249 l 229 208 l 233 199 q 268 142 275 39 q 275 30 276 17 q 276 5 276 -3 q 276 -12 275 -20 q 275 -36 275 -42 q 271 -76 260 -76 q 259 -76 258 -76 q 250 -74 244 -53 q 242 -45 239 -32 q 236 -20 234 -9 q 233 -6 233 -3 q 232 3 232 5 q 231 6 230 13 q 229 19 229 26 q 225 62 222 95 q 220 128 218 173 l 217 208 l 214 211 q 211 216 205 223 q 198 231 191 237 q 170 259 149 269 q 138 274 127 274 q 123 275 121 275 q 119 276 119 278 q 119 278 117 278 q 115 278 112 278 q 105 277 96 276 q 18 267 1 267 q -2 267 -3 267 q -10 269 -10 275 q -10 277 -10 278 q -9 279 -8 280 q -7 281 -5 282 q -4 283 -3 283 q 0 283 24 285 q 49 288 83 291 q 116 294 148 297 q 179 299 196 301 q 204 302 210 302 q 215 303 215 303 q 216 303 216 310 q 216 317 216 327 q 216 371 218 421 q 219 472 220 502 q 220 507 220 513 q 221 523 221 530 q 221 535 221 542 q 222 550 222 556 q 224 599 225 616 q 226 633 227 639 q 227 643 227 648 q 228 655 228 661 q 232 731 241 747 q 246 754 250 756 q 254 758 256 758 q 260 758 264 755 q 267 753 268 750 q 270 746 271 738 q 272 735 273 731 q 273 728 274 725 q 275 723 275 722 q 275 722 275 721 l 275 720 q 275 719 274 717 q 273 715 271 713 q 269 710 268 710 q 267 710 267 710 q 267 710 266 708 q 266 707 266 704 q 265 702 265 696 q 265 696 265 696 q 264 691 264 686 q 263 681 262 675 q 262 673 262 672 l 262 670 q 261 665 260 659 q 260 653 259 649 q 259 645 258 637 q 257 630 257 623 q 256 616 255 606 q 253 597 253 590 q 252 583 251 578 q 250 572 250 571 q 245 526 241 479 q 237 431 235 395 q 233 373 233 361 q 232 349 232 335 q 231 327 231 319 q 230 312 230 310 l 230 304 q 231 304 235 305 q 246 305 268 307 q 450 321 612 327 l 636 328 q 647 329 651 329 l 660 329 l 660 340 q 662 500 669 637 q 674 710 678 749 q 682 787 686 804 q 689 815 692 822 q 695 828 699 831 q 703 835 708 835 q 711 835 715 833 q 719 831 720 827 q 721 824 721 816 q 721 812 721 809 q 721 804 722 801 q 722 800 722 798 q 723 796 723 795 l 722 794 q 722 792 720 791 q 718 789 717 788 q 715 788 707 707 q 699 634 695 583 q 690 532 686 479 q 684 452 682 415 q 680 378 679 358 q 679 355 679 350 q 679 345 678 340 l 678 330 l 688 330 q 692 330 708 331 q 725 331 745 332 q 788 333 811 333 q 834 334 844 334 q 854 335 857 335 q 860 335 865 336 q 870 336 875 336 q 880 336 882 336 q 885 336 886 335 q 887 335 888 334 q 894 330 893 324 q 893 318 888 314 q 886 312 882 311 q 878 310 875 309 q 872 308 870 308 l 869 308 q 867 309 865 310 q 863 312 863 314 l 862 316 l 851 317 q 826 319 779 319 q 763 319 745 319 l 719 319 q 689 318 685 318 l 678 318 l 677 301 q 675 234 675 170 l 675 144 q 676 67 678 15 q 680 -18 683 -50 q 687 -81 689 -97 q 690 -100 691 -103 l 691 -105 l 694 -105 q 695 -105 696 -106 q 698 -107 699 -108 q 700 -111 701 -116 q 702 -121 702 -124 q 702 -130 699 -133 q 696 -135 693 -135 q 692 -135 689 -134 z m 216 256 q 216 275 215 284 l 215 288 l 212 288 q 210 288 206 288 q 148 282 144 281 q 143 281 143 280 q 143 280 146 279 q 154 276 165 270 q 176 263 186 256 q 192 250 200 242 q 208 234 212 229 l 213 229 q 214 227 215 226 q 216 225 216 225 z m 262 -57 q 262 -55 263 -50 q 264 -45 265 -40 q 265 -32 266 -24 q 266 -16 266 1 q 266 105 235 174 l 230 187 l 229 178 l 229 170 q 229 157 230 135 q 231 106 233 78 q 237 29 244 -8 q 250 -45 257 -61 q 259 -63 259 -63 l 260 -63 q 260 -62 262 -57 z"},"4":{"x_min":0,"x_max":495,"ha":495,"o":"m 310 9 q 307 13 306 24 q 303 42 303 75 q 303 105 305 148 q 310 240 321 334 q 322 340 322 345 q 323 349 323 350 q 322 350 321 348 q 319 347 314 344 q 309 340 300 334 q 291 328 277 318 q 262 308 242 293 q 136 219 98 208 q 81 201 66 201 q 51 201 39 209 q 15 227 15 272 q 15 297 22 332 q 51 451 142 589 q 199 675 231 682 q 234 683 237 683 q 245 683 251 679 q 259 673 261 662 l 261 660 q 261 657 260 654 q 258 650 254 644 q 252 642 250 638 q 248 634 247 632 q 245 627 243 625 q 242 624 240 623 l 239 623 q 234 623 232 631 l 232 632 l 231 631 q 231 631 229 630 q 227 628 223 625 q 127 537 63 400 q 28 319 28 268 q 28 256 30 245 q 32 239 35 232 q 38 226 42 223 q 50 213 66 213 q 68 213 71 213 q 93 214 126 231 q 147 241 176 260 q 206 279 268 321 q 292 338 307 348 q 313 353 315 354 q 319 356 321 358 q 324 359 324 360 q 324 360 325 364 q 325 368 326 373 q 332 420 341 474 q 350 528 359 573 q 379 676 393 688 q 398 693 403 693 l 405 693 q 415 691 415 680 l 415 679 q 414 675 413 670 q 413 665 412 660 q 411 655 410 653 q 409 648 401 619 q 394 589 385 554 q 376 519 372 498 q 366 474 360 446 q 354 417 350 398 q 346 378 346 375 l 346 375 l 348 376 l 353 379 q 355 381 360 383 q 439 436 471 453 q 476 456 478 456 q 480 456 480 453 q 480 453 479 452 q 478 451 475 449 q 473 447 468 444 q 456 437 443 429 q 430 421 411 409 q 397 400 383 390 q 368 380 357 373 q 346 366 345 365 q 344 363 341 344 q 337 326 333 297 q 316 180 312 77 q 312 64 312 55 q 312 27 316 17 q 317 13 317 11 q 317 10 317 9 q 316 7 315 7 q 313 7 313 7 q 311 7 310 9 z"},"D":{"x_min":0,"x_max":658,"ha":658,"o":"m 286 -54 q 268 -51 254 -42 q 249 -38 243 -32 q 237 -25 233 -20 q 215 8 209 53 q 208 58 208 69 q 208 81 208 92 q 208 104 209 111 q 230 285 370 429 q 395 454 418 473 q 442 492 457 500 q 463 502 469 505 q 475 507 477 507 q 479 507 479 507 l 479 508 l 479 509 q 479 510 478 514 q 477 518 476 522 q 475 534 472 547 q 469 560 467 567 q 450 636 422 678 q 395 720 362 733 q 343 741 323 741 q 301 741 276 731 q 171 689 90 532 q 36 423 16 307 q 15 300 14 296 q 13 291 13 285 q 13 279 12 269 l 12 266 q 12 254 12 244 q 12 220 14 205 q 15 203 15 202 q 15 199 15 196 q 16 192 16 190 q 18 151 23 117 q 28 82 34 67 q 34 65 35 64 q 35 63 36 63 q 37 63 38 63 q 41 63 42 62 q 43 60 43 58 q 43 57 42 54 q 40 52 38 52 q 36 51 34 51 q 21 51 12 97 q 0 147 -6 233 q -8 257 -8 271 q -9 286 -10 309 l -10 374 q -9 411 -8 430 q -8 435 -7 443 q -7 451 -7 459 q -4 508 1 567 q 3 585 5 594 q 6 604 8 612 q 12 631 16 638 q 20 645 28 646 q 33 646 37 643 q 41 641 42 636 q 42 635 42 629 q 42 623 42 615 q 42 608 41 602 q 41 596 41 594 q 41 593 40 591 q 40 588 39 585 q 39 583 39 582 q 38 577 37 571 q 36 564 35 558 q 26 497 22 467 l 21 456 q 21 451 21 448 q 21 447 20 443 q 19 433 16 386 q 15 381 15 375 q 15 369 14 362 q 14 355 14 352 q 14 349 14 347 l 14 346 l 15 351 q 16 355 18 363 q 23 382 31 408 q 39 435 46 455 q 93 579 166 661 q 211 711 259 735 q 270 740 278 743 q 286 746 294 749 q 314 754 332 754 q 346 754 359 750 q 401 739 435 700 q 504 615 512 459 q 512 450 512 439 q 512 428 512 415 q 512 388 511 376 l 510 371 q 510 363 509 355 q 503 283 483 203 q 460 118 425 53 q 385 -17 336 -42 q 315 -53 296 -54 z m 312 -35 q 319 -33 328 -28 q 338 -23 346 -18 q 353 -12 363 -2 q 374 8 380 16 q 414 59 438 126 q 440 132 442 136 q 444 141 444 143 l 448 156 q 463 206 473 258 q 477 284 479 305 q 482 327 483 351 q 484 359 484 377 q 485 395 485 409 q 485 422 485 429 q 485 436 485 440 q 484 452 483 466 q 482 480 481 491 q 480 502 479 503 q 479 503 479 503 q 479 503 478 503 q 478 502 477 502 q 475 501 471 500 q 460 495 448 487 q 436 479 418 464 q 402 451 383 433 q 364 414 351 399 q 271 307 235 200 q 217 139 217 89 q 217 43 233 7 q 250 -29 280 -37 q 284 -38 291 -38 l 295 -38 q 305 -37 312 -35 z"},"0":{"x_min":0,"x_max":278,"ha":278,"o":"m 140 7 q 101 15 73 72 q 40 140 31 258 q 30 276 30 295 q 29 315 29 324 q 29 341 30 354 q 36 479 70 574 q 100 653 137 682 q 147 690 157 693 q 160 693 163 693 q 168 693 173 691 q 177 689 180 685 q 184 681 184 678 q 184 676 182 673 q 181 671 179 669 l 177 668 l 181 658 q 190 636 200 607 q 210 578 218 551 q 249 432 249 305 q 249 259 245 212 q 230 60 183 19 q 178 16 173 12 q 167 9 163 8 q 158 6 154 6 q 149 6 147 6 q 144 6 140 7 z m 161 24 q 204 43 226 153 q 241 229 241 313 q 241 348 238 383 q 229 507 188 620 q 182 638 176 653 q 169 668 167 671 q 167 672 166 672 q 165 671 164 670 l 163 670 q 158 667 148 654 q 93 570 65 424 q 57 379 53 331 q 53 322 53 306 q 53 290 53 279 l 53 258 q 53 237 53 228 q 57 180 66 142 q 91 38 140 22 q 143 22 147 22 l 151 22 q 157 22 161 24 z"},"F":{"x_min":0,"x_max":538,"ha":538,"o":"m 232 -66 q 229 -65 226 -61 q 224 -57 221 -47 q 215 -32 211 -7 q 196 81 192 243 l 191 276 l 189 279 q 186 284 180 290 q 175 296 171 300 q 160 308 150 310 q 148 311 145 311 q 142 311 136 310 q 130 309 120 308 q 99 306 77 303 q 56 300 40 298 q 23 295 20 294 q 19 293 18 293 q 16 293 14 295 q 12 296 12 299 l 12 300 q 12 302 16 304 q 18 305 24 306 q 31 308 48 311 q 91 318 165 324 q 170 324 175 325 q 182 325 186 325 q 190 326 190 326 q 191 326 191 335 q 191 345 192 358 q 193 520 208 655 q 209 665 211 679 q 212 692 214 704 q 215 715 216 719 l 216 720 q 216 723 216 724 l 216 724 q 216 725 214 725 l 211 725 q 197 723 160 718 q 124 713 79 707 q 39 701 25 700 q 12 698 6 698 q 1 698 0 699 q -7 700 -8 703 q -10 706 -10 707 q -10 709 -8 712 q -5 717 10 720 q 25 724 41 724 l 45 724 q 49 724 51 723 q 52 723 53 723 q 54 722 55 721 l 58 719 l 78 721 q 108 725 139 729 q 169 732 189 734 l 205 736 q 214 737 216 738 l 219 738 l 221 744 q 225 762 233 765 q 236 767 240 767 q 241 767 243 767 q 247 766 250 761 q 251 760 252 759 q 252 758 252 756 q 252 754 252 750 l 252 741 l 254 741 q 256 742 269 743 q 282 744 299 745 q 315 747 328 748 q 428 755 559 759 q 577 759 626 760 q 675 760 732 760 q 789 760 830 760 q 871 760 875 759 q 876 758 878 756 q 880 753 880 751 q 880 750 879 748 q 878 747 877 746 q 875 744 874 743 q 872 742 868 742 q 865 742 857 741 l 849 741 l 845 746 l 833 746 q 779 750 689 750 q 630 750 554 749 q 435 745 321 735 q 310 734 294 733 q 278 731 265 730 q 253 729 251 729 q 250 729 250 728 q 250 728 250 726 q 250 725 247 705 q 244 685 240 662 q 231 601 225 543 q 222 525 219 498 q 217 471 216 451 q 215 445 214 439 q 214 435 214 433 q 214 429 213 424 l 213 417 q 213 416 213 412 q 212 409 212 405 q 212 402 212 399 q 211 392 211 378 q 210 365 209 352 q 209 339 208 333 l 208 328 l 211 328 q 213 328 223 328 q 233 329 247 330 q 292 333 325 334 q 359 336 393 336 q 407 337 417 337 q 427 337 433 336 q 445 336 447 335 q 451 333 451 330 q 451 328 449 326 q 448 325 448 324 q 447 324 445 324 q 443 324 439 324 q 436 324 431 324 q 426 324 422 324 q 406 326 381 326 q 335 326 259 320 q 209 317 208 316 l 208 315 q 208 313 208 310 l 208 303 q 208 298 208 291 q 208 284 207 279 l 207 268 l 209 263 q 238 210 247 97 q 250 57 250 16 q 250 -24 248 -44 q 247 -54 245 -59 q 243 -63 239 -66 q 237 -67 236 -67 q 235 -67 235 -67 q 234 -67 232 -66 z m 191 303 q 191 307 191 310 q 191 312 191 313 q 191 314 191 315 q 190 315 189 315 q 189 315 185 315 q 181 314 176 314 q 171 313 169 313 l 166 312 l 171 310 q 173 308 176 305 q 180 302 183 299 q 186 296 188 293 l 190 292 q 191 292 191 295 q 191 298 191 303 z m 237 -37 q 239 -25 239 -10 q 240 4 240 26 q 240 124 221 205 q 219 214 215 226 q 211 238 209 243 l 207 247 l 207 231 q 207 222 207 202 q 208 183 208 163 q 208 142 209 130 q 212 64 219 17 q 221 -2 225 -20 q 229 -38 231 -44 l 232 -47 l 233 -50 l 234 -52 l 235 -50 q 235 -50 236 -46 q 236 -42 237 -37 z"},"`":{"x_min":0,"x_max":188,"ha":188,"o":"m 138 584 q 137 583 136 583 q 135 582 134 582 q 132 582 131 583 q 129 584 126 588 q 123 592 117 599 l 115 600 q 105 611 92 625 q 78 639 65 650 q 58 656 54 660 q 51 663 50 665 q 49 668 49 672 q 49 679 55 684 q 57 685 58 686 q 59 686 60 686 q 62 686 64 686 q 69 686 73 684 q 76 682 82 676 q 85 672 94 659 q 104 646 114 631 q 124 615 131 603 q 139 591 139 589 q 140 588 140 587 q 140 586 139 585 q 139 584 138 584 z"},"k":{"x_min":0,"x_max":319,"ha":319,"o":"m 16 184 q 15 185 13 186 q 12 188 11 189 q 7 199 2 224 q -3 249 -6 274 q -8 299 -9 328 q -10 357 -10 374 q -10 392 -9 407 q -1 576 45 671 q 60 703 79 721 q 95 738 110 738 q 127 738 133 717 q 134 712 134 702 q 134 691 133 682 q 122 602 62 478 q 34 421 15 399 q 14 397 13 392 q 13 387 12 376 q 12 364 12 344 l 12 335 q 12 261 20 213 q 21 202 21 202 q 22 202 22 208 q 23 222 30 247 q 36 271 44 297 q 61 348 83 387 q 106 426 126 443 q 137 452 144 452 q 152 452 156 443 q 157 441 158 439 q 158 438 158 436 q 159 434 159 431 q 158 408 139 379 q 127 361 109 345 q 92 329 75 319 q 70 317 70 316 q 70 316 72 313 q 74 311 77 307 q 80 304 82 301 q 85 297 87 295 q 109 276 140 269 q 150 267 164 267 q 173 267 183 268 q 208 271 229 278 q 256 289 284 310 q 294 317 304 326 q 313 335 319 341 q 325 349 328 349 q 329 349 329 347 l 330 346 l 329 345 q 329 344 327 342 q 325 340 322 335 q 296 308 263 287 q 216 259 161 259 l 157 259 q 122 260 95 278 q 86 284 80 290 q 74 297 66 307 q 66 308 66 308 q 61 315 59 315 l 58 315 q 56 314 53 305 q 53 304 53 303 q 42 274 36 245 q 30 216 29 195 q 29 190 28 188 q 27 185 25 182 q 24 181 22 181 l 21 181 q 18 181 16 184 z m 21 419 q 23 423 27 428 q 30 434 33 438 q 72 507 99 579 q 126 651 128 692 l 128 698 q 128 704 128 708 q 127 714 124 719 q 121 725 115 725 q 109 725 102 716 q 92 708 83 691 q 73 674 65 655 q 30 560 16 424 q 16 420 15 417 q 15 414 15 412 q 15 412 15 411 q 15 411 15 410 l 15 410 q 15 410 17 412 q 19 415 21 419 z m 78 340 q 86 349 97 360 q 108 371 113 376 q 124 390 132 407 q 142 427 142 437 q 142 442 142 442 q 141 442 141 442 q 139 442 135 440 q 116 429 90 386 q 85 378 79 365 q 73 353 68 342 q 62 331 62 330 l 63 330 q 63 330 67 332 q 71 335 78 340 z"},"u":{"x_min":0,"x_max":402,"ha":402,"o":"m 193 210 q 153 217 128 259 q 118 277 110 304 q 108 312 106 325 q 104 338 104 347 q 104 351 103 354 l 103 356 l 102 354 q 101 352 99 349 q 91 326 83 306 q 75 286 69 276 q 50 238 31 238 q 26 238 21 241 q -6 256 -10 327 l -10 346 q -10 357 -9 367 q -9 376 -8 380 q -4 397 6 400 q 7 401 9 401 q 11 401 12 400 q 15 400 17 399 q 22 396 22 392 q 22 389 22 388 q 22 382 19 371 l 19 370 q 12 347 10 331 q 8 322 8 313 q 8 304 8 301 q 8 292 9 285 q 12 263 21 253 q 24 250 26 249 q 28 248 32 248 q 51 248 76 308 q 87 333 94 353 q 102 374 104 382 q 107 399 118 401 q 119 402 121 402 q 124 402 126 400 q 131 397 132 393 q 133 391 133 390 q 133 389 133 387 q 133 385 132 381 q 131 377 130 371 q 127 355 126 347 q 125 338 125 329 q 125 297 137 271 q 148 244 167 230 q 186 217 211 217 q 227 217 245 222 q 280 232 319 261 q 361 293 398 337 q 402 342 404 344 q 406 347 407 348 q 409 349 410 349 q 411 349 411 348 q 412 348 412 347 q 412 347 411 345 q 409 343 405 338 q 401 333 394 324 q 389 318 378 307 q 367 296 356 285 q 344 273 338 269 q 282 220 229 211 q 222 209 210 209 q 199 209 193 210 z"},"]":{"x_min":0,"x_max":353,"ha":353,"o":"m 298 808 q 301 805 301 801 l 301 799 q 300 795 294 793 q 293 793 289 792 q 284 791 279 791 q 277 790 275 790 q 270 790 267 789 q 265 789 264 788 q 263 788 263 787 l 263 786 q 263 785 263 781 q 264 778 265 774 q 268 755 271 708 q 274 662 276 606 q 279 526 279 401 q 279 275 277 198 q 276 164 274 126 q 272 87 271 56 q 270 46 269 32 q 268 13 267 -4 q 264 -61 262 -71 q 262 -73 261 -74 q 261 -76 261 -76 l 263 -76 q 265 -76 268 -74 q 269 -74 271 -73 q 273 -73 275 -72 q 277 -72 281 -72 q 284 -71 287 -71 q 290 -70 292 -70 q 295 -69 296 -69 q 301 -71 303 -76 q 304 -77 303 -78 q 303 -79 303 -81 q 301 -83 299 -85 q 297 -86 291 -87 q 286 -88 274 -88 q 264 -89 261 -89 q 257 -90 257 -91 q 257 -92 256 -94 q 255 -96 254 -99 q 252 -101 251 -103 q 246 -108 237 -108 q 226 -108 221 -97 l 220 -94 l 213 -95 l 206 -95 q 200 -96 192 -96 q 188 -97 180 -97 q 170 -98 161 -98 q 153 -98 136 -99 q 120 -99 102 -99 q 84 -99 71 -99 q 58 -99 56 -99 q 51 -97 50 -95 q 49 -92 49 -91 q 49 -89 51 -87 q 53 -84 56 -84 q 58 -84 60 -86 q 64 -89 78 -90 q 92 -91 106 -91 l 121 -91 q 166 -90 210 -84 l 218 -83 l 218 -69 q 218 -63 219 -56 q 220 -48 220 -42 q 221 -37 222 -31 q 223 -24 224 -11 q 226 2 230 31 q 231 36 231 42 q 245 139 252 216 q 259 294 263 378 q 267 466 267 547 q 267 629 263 705 q 261 752 257 773 q 256 778 256 781 q 255 783 255 785 q 254 786 254 786 q 254 787 253 787 q 252 787 248 786 q 243 785 236 785 q 170 777 95 773 q 81 773 73 773 q 65 773 61 773 q 56 773 54 774 q 53 775 51 777 q 50 779 50 781 q 50 783 51 785 q 52 786 53 787 q 55 787 56 787 q 58 787 60 787 q 63 787 70 786 q 84 785 101 785 q 134 785 181 789 q 235 795 280 806 q 289 808 293 808 q 297 809 298 808 z"},"U":{"x_min":0,"x_max":690,"ha":690,"o":"m 111 -96 q 70 -89 40 -26 q 11 38 -2 146 q -10 214 -10 287 q -10 380 2 482 q 16 586 42 666 q 57 708 71 733 q 88 756 103 756 q 106 756 108 756 q 115 754 118 749 q 122 743 125 731 q 127 725 128 721 q 128 718 126 715 q 123 711 119 711 l 117 711 q 112 712 109 717 l 109 717 q 108 718 108 719 q 107 719 107 719 l 106 718 q 105 717 104 714 q 103 711 100 705 q 91 684 80 653 q 69 622 61 591 q 10 409 10 239 q 10 181 16 124 q 33 -12 79 -63 q 84 -69 89 -72 q 93 -75 98 -78 q 103 -81 107 -82 q 111 -83 117 -83 l 124 -83 q 127 -83 131 -82 q 179 -71 243 34 q 284 104 333 215 q 429 433 496 646 q 500 656 501 663 q 502 669 503 678 q 520 780 532 794 q 534 796 537 796 q 539 796 542 793 q 543 792 543 791 q 544 790 544 787 l 544 785 q 544 779 542 764 q 541 747 538 722 q 516 555 507 316 q 507 298 507 267 q 507 236 507 216 l 507 175 q 507 134 507 120 q 508 98 510 81 q 511 64 512 58 q 513 56 513 55 q 514 55 516 54 q 517 53 518 52 q 519 52 520 51 q 521 49 521 46 q 521 44 520 42 q 519 37 515 34 q 514 33 512 32 q 511 32 509 32 q 506 33 505 33 q 504 34 502 36 q 496 42 493 59 q 489 75 487 100 q 485 125 483 169 q 483 189 483 224 q 483 260 483 284 l 483 332 q 483 379 483 401 q 486 475 489 524 q 492 574 496 617 q 497 623 498 627 l 498 631 l 496 627 l 493 617 q 467 539 431 440 q 395 342 358 256 q 251 0 182 -64 q 158 -88 135 -94 q 130 -95 125 -95 q 119 -96 116 -96 z"},"o":{"x_min":0,"x_max":287,"ha":287,"o":"m 18 235 q 5 240 -2 261 q -10 283 -10 310 q -10 332 -5 356 q 3 391 19 400 q 23 402 28 402 q 36 402 42 393 q 44 390 50 384 q 56 377 62 371 q 69 364 73 360 q 84 352 98 344 q 111 335 124 331 q 137 326 149 323 q 162 321 178 321 q 184 321 190 321 q 199 321 207 322 q 219 323 235 327 q 269 336 289 346 q 292 349 294 349 q 296 349 296 347 l 296 346 q 296 345 294 343 q 291 341 282 337 q 271 332 255 327 q 239 322 225 318 q 202 313 180 313 q 148 313 118 324 q 82 338 52 365 l 47 370 l 45 372 l 46 370 q 46 367 46 364 q 51 339 52 310 q 52 282 47 262 q 39 234 24 234 q 21 234 18 235 z m 29 247 q 40 258 44 294 q 45 303 45 315 l 45 323 q 44 340 42 351 q 38 381 35 383 q 33 383 29 376 q 25 370 21 361 q 17 353 14 345 q 6 319 6 306 q 5 293 5 292 q 5 269 12 254 q 18 244 23 244 q 25 244 26 244 q 27 245 29 247 z"},"N":{"x_min":0,"x_max":632,"ha":632,"o":"m 463 -113 q 443 -106 434 -57 q 430 -37 428 -8 q 425 20 423 69 q 422 86 421 108 q 421 130 421 172 q 420 213 420 289 q 419 383 419 436 q 418 489 417 520 q 416 551 415 580 q 409 667 400 714 q 398 723 395 735 q 392 746 389 754 q 374 803 343 803 q 333 803 319 796 q 276 773 227 696 q 169 606 122 466 q 118 456 115 448 q 113 441 112 438 l 112 437 q 111 436 109 427 q 106 419 103 408 q 60 268 44 138 q 43 128 41 106 q 39 84 37 64 q 36 44 36 41 q 36 32 30 32 l 30 32 q 24 32 20 42 q 13 61 6 119 q 0 177 -5 250 q -7 288 -8 338 q -10 388 -10 420 q -10 468 -8 522 q -7 577 -5 604 q -2 648 11 660 q 18 666 24 666 q 28 666 31 664 q 37 662 40 654 q 40 653 40 650 q 40 648 40 646 q 40 643 40 637 q 39 628 37 612 q 35 596 32 568 q 32 565 32 563 q 27 527 25 505 q 22 483 21 461 q 13 370 13 281 q 13 208 19 136 q 20 118 21 101 q 23 84 24 72 q 26 61 26 61 q 27 61 27 62 q 27 64 28 66 q 29 81 33 107 q 36 134 40 159 q 44 185 46 198 q 54 244 64 288 q 96 420 137 526 q 146 550 154 568 q 162 586 171 606 q 210 689 252 743 q 293 796 329 809 q 339 812 349 812 q 385 812 407 766 q 438 704 442 529 q 442 510 442 479 l 442 445 q 442 390 440 328 q 439 250 439 195 l 439 170 q 439 110 441 65 q 445 -6 453 -43 q 456 -59 460 -71 q 464 -84 467 -89 l 469 -92 l 471 -89 q 474 -85 478 -85 q 479 -85 480 -85 q 484 -87 485 -89 q 485 -90 485 -91 q 485 -94 483 -98 q 483 -101 482 -103 q 481 -105 480 -107 q 478 -111 474 -112 q 470 -113 467 -113 q 465 -113 463 -113 z"},"+":{"x_min":0,"x_max":274,"ha":274,"o":"m 134 232 q 131 233 129 242 q 126 251 124 273 q 123 281 122 290 q 121 299 121 305 q 120 312 119 315 l 119 319 l 118 319 q 116 319 112 318 q 105 317 95 315 q 86 313 76 312 q 67 310 61 308 q 58 308 57 308 q 56 308 56 308 l 55 308 q 54 308 53 308 q 49 310 49 312 q 49 314 49 314 q 49 317 52 319 q 54 320 55 321 q 56 321 58 321 q 61 321 65 321 q 69 322 78 323 q 86 325 96 327 q 102 328 106 328 l 118 331 l 118 346 l 118 368 q 118 387 118 397 q 120 414 125 420 q 127 424 130 426 q 133 427 138 427 q 140 427 142 427 q 143 426 145 425 q 150 421 151 411 q 151 409 151 406 l 151 403 q 151 398 150 388 q 149 378 146 358 q 146 348 145 341 l 144 334 q 144 334 153 335 q 162 335 175 336 q 188 338 197 339 q 205 339 208 340 q 211 340 212 340 q 214 340 215 339 q 217 339 218 338 q 224 335 224 333 q 225 330 225 329 q 225 326 222 323 q 220 320 218 320 q 216 320 215 320 q 212 320 208 321 q 200 323 191 323 q 182 323 177 323 q 167 323 158 323 q 148 322 144 321 l 143 321 q 142 320 141 308 q 141 295 140 280 q 140 266 141 254 q 141 243 143 239 q 143 238 143 237 q 143 236 143 234 q 142 232 140 231 q 138 231 137 231 q 136 231 134 232 z"},"G":{"x_min":0,"x_max":735,"ha":735,"o":"m 171 -120 q 130 -114 94 -86 q 87 -80 79 -71 q 70 -62 64 -55 q 7 19 -6 146 q -9 167 -9 181 q -10 196 -10 219 q -10 301 5 381 q 34 530 101 644 q 144 715 193 761 q 243 808 290 819 q 294 820 298 820 q 302 820 311 820 q 322 820 328 819 q 335 817 343 813 q 387 792 398 713 q 401 697 402 684 q 403 670 403 645 q 403 571 390 500 q 387 482 386 475 q 386 468 386 465 l 386 461 q 386 456 382 452 q 380 449 376 449 q 374 449 372 450 q 368 451 367 454 q 366 458 366 461 q 366 465 367 470 q 368 480 372 499 q 389 583 389 651 l 389 665 q 388 717 376 747 q 356 803 313 803 q 293 803 271 791 q 195 750 124 628 q 41 482 17 299 q 16 290 14 272 q 13 254 12 235 q 11 220 11 210 q 11 201 12 186 q 13 158 14 140 q 16 122 20 101 q 37 3 85 -52 q 115 -85 151 -98 q 161 -101 168 -102 q 175 -104 184 -104 l 189 -104 q 198 -104 202 -103 q 207 -103 212 -102 q 263 -91 314 -40 q 386 30 495 213 q 500 223 506 232 q 511 242 514 246 q 517 250 518 252 q 520 254 520 255 q 521 256 520 256 q 520 256 520 256 q 519 256 510 256 q 502 255 492 254 q 481 252 473 251 q 456 249 435 246 q 415 243 399 240 q 384 237 383 236 l 383 236 q 382 235 381 234 q 380 232 378 232 q 376 231 372 231 q 367 230 359 229 q 354 229 350 228 q 341 227 337 226 q 334 226 332 226 l 329 226 q 327 226 326 227 q 323 229 323 233 l 323 234 q 324 238 328 240 q 332 241 356 245 q 379 249 408 253 q 465 261 512 266 q 560 270 632 274 q 656 275 668 276 q 680 276 686 277 q 692 278 698 279 q 704 281 707 281 q 711 280 713 276 q 715 272 715 270 q 715 268 715 267 q 713 261 704 261 q 699 261 693 263 q 683 265 661 265 q 652 265 641 264 q 604 264 560 260 l 559 260 q 553 260 550 260 q 547 259 546 259 q 544 259 544 259 q 544 258 544 258 l 544 257 q 545 256 546 253 q 547 249 549 244 q 558 218 564 173 q 569 140 572 122 q 575 103 577 92 q 579 80 580 69 q 581 68 581 67 q 594 -17 608 -53 q 611 -61 616 -71 q 621 -80 624 -84 q 625 -86 625 -87 q 625 -87 626 -87 q 627 -87 627 -87 l 628 -87 q 631 -87 633 -88 q 636 -89 637 -92 q 638 -93 638 -95 q 638 -97 637 -99 q 635 -103 632 -105 q 630 -105 628 -105 l 625 -105 q 622 -105 619 -104 q 615 -102 609 -96 q 604 -90 599 -83 q 571 -42 551 54 q 533 138 531 214 q 530 233 530 240 q 529 247 529 247 q 528 247 526 244 q 523 240 520 236 q 516 231 513 227 q 503 212 482 177 q 359 -27 287 -82 q 235 -120 185 -120 q 178 -120 171 -120 z"},"q":{"x_min":0,"x_max":316,"ha":316,"o":"m 188 -159 q 181 -157 172 -150 q 163 -144 157 -135 q 136 -106 119 -54 q 118 -50 116 -46 q 115 -42 114 -40 q 113 -34 109 -20 q 106 -5 104 5 q 91 63 85 132 q 81 182 81 214 q 81 247 81 255 q 81 301 83 334 q 83 338 83 341 l 83 344 l 83 341 l 80 334 q 76 320 69 301 q 63 282 59 273 q 48 246 39 238 q 35 235 32 234 q 29 233 24 233 q 19 233 14 235 q 9 237 4 243 q -9 257 -14 283 q -15 292 -15 303 q -15 314 -14 323 q -3 384 37 408 q 44 412 50 413 q 56 414 59 414 q 64 414 69 412 q 82 407 87 388 q 88 386 88 385 l 89 383 q 89 384 90 387 q 90 390 91 393 q 96 409 102 413 q 104 414 106 414 q 114 414 117 398 l 117 392 q 117 377 114 349 q 110 318 108 297 q 106 276 104 256 q 103 236 102 226 q 102 216 102 212 l 102 208 q 103 208 108 207 q 113 206 120 206 q 126 206 132 206 q 156 206 175 211 q 194 217 215 231 q 278 273 318 341 q 321 346 323 347 q 324 349 325 349 l 325 349 q 326 348 326 347 q 326 346 326 345 q 325 342 321 336 q 296 293 260 259 q 208 213 166 202 q 157 200 151 199 q 144 198 131 198 q 124 198 118 198 q 113 198 113 198 l 114 198 q 115 197 116 197 q 120 195 128 190 q 137 185 143 180 q 183 151 210 110 q 240 65 250 6 q 253 -9 254 -19 q 255 -29 255 -45 q 255 -61 254 -71 q 253 -81 251 -92 q 240 -141 213 -156 q 210 -157 208 -158 q 207 -159 204 -159 q 202 -159 199 -159 q 195 -159 192 -159 q 189 -159 188 -159 z m 31 249 q 47 254 75 339 l 82 356 l 82 368 l 82 375 q 82 394 74 399 q 71 401 68 401 q 61 401 52 393 q 39 379 28 357 q 17 335 12 312 q 10 303 10 296 q 10 289 10 286 q 10 279 10 274 q 12 266 15 259 q 19 252 23 250 q 25 248 27 248 q 28 248 31 249 z m 204 -149 q 213 -147 221 -139 q 241 -120 247 -78 q 249 -61 249 -43 q 249 -18 244 11 q 234 58 213 94 q 206 107 197 118 q 188 129 173 145 q 159 158 150 166 q 141 174 130 182 q 125 185 119 188 q 113 191 108 194 q 103 196 102 196 q 101 196 101 193 q 100 189 100 173 q 100 157 101 140 q 101 122 101 114 q 106 35 121 -23 q 122 -29 123 -33 q 124 -37 125 -41 q 126 -45 128 -52 q 142 -96 160 -123 q 164 -130 170 -136 q 177 -143 182 -146 q 190 -150 197 -150 q 201 -150 204 -149 z"},"d":{"x_min":0,"x_max":369,"ha":369,"o":"m 206 82 q 176 86 154 113 q 129 142 112 193 q 94 250 88 330 l 88 338 l 85 327 q 67 256 47 239 q 40 231 30 231 q 17 231 7 244 q -5 261 -8 280 q -10 299 -10 309 q -10 328 -5 349 q 6 385 30 404 q 44 415 58 415 q 62 415 65 414 q 72 412 78 408 q 83 403 86 399 l 87 396 l 88 401 q 88 403 88 408 q 88 414 89 419 l 89 421 q 98 568 148 669 q 165 703 183 721 q 203 742 222 742 l 226 742 q 235 742 242 735 q 255 722 255 690 q 255 669 250 641 q 225 529 160 434 q 134 397 115 387 l 112 386 l 111 381 q 111 379 111 373 q 110 366 110 357 q 110 355 110 353 l 110 341 q 110 226 146 152 q 158 130 170 117 q 178 108 186 104 q 193 99 202 97 q 205 95 208 95 q 211 94 218 94 q 219 95 219 95 q 225 95 228 95 q 231 95 235 97 q 254 103 271 120 q 299 146 324 205 q 334 229 347 264 q 359 298 370 332 q 372 338 373 343 q 375 347 375 348 q 375 349 377 349 q 378 349 379 348 q 379 348 379 347 q 379 346 379 344 q 378 342 377 336 q 375 331 372 320 q 371 317 371 315 q 342 224 316 168 q 273 85 217 81 q 214 81 211 81 q 208 82 206 82 z m 118 399 q 132 410 150 435 q 168 459 185 488 q 236 582 248 668 q 249 676 249 685 l 249 690 q 249 703 247 708 q 243 723 235 727 q 233 728 231 728 l 229 728 q 226 728 222 727 q 207 718 188 683 q 168 647 152 601 q 122 508 112 400 l 112 395 q 113 395 118 399 z m 37 248 q 60 259 82 338 l 86 354 l 85 368 q 84 383 82 391 q 79 398 72 400 q 69 401 66 401 q 55 401 43 383 q 25 354 17 315 q 15 305 15 297 q 15 289 15 286 q 15 279 15 274 q 17 262 22 254 q 26 247 32 247 q 33 247 34 247 q 36 248 37 248 z"},"1":{"x_min":0,"x_max":323,"ha":323,"o":"m 20 4 q 16 5 15 7 q 15 9 15 10 q 15 13 17 15 q 19 18 24 19 q 28 20 31 20 l 36 20 q 42 20 61 22 q 75 24 90 27 q 106 29 118 30 q 130 32 132 32 q 134 32 135 32 q 135 32 135 32 l 132 39 q 113 72 112 193 l 112 210 q 112 292 120 404 q 128 532 147 660 q 147 666 148 670 q 148 674 148 675 l 148 678 l 146 675 q 143 671 138 665 q 134 659 130 653 q 122 639 111 615 q 99 590 88 563 q 84 553 83 548 q 81 542 80 541 q 80 539 80 538 l 80 536 q 81 534 81 533 q 81 530 78 528 q 76 526 73 526 l 72 526 q 68 528 67 532 q 66 533 66 534 q 66 535 67 536 q 67 538 69 542 q 70 545 73 551 q 75 557 79 566 q 83 575 89 587 q 122 663 143 689 q 149 697 156 697 q 159 697 162 695 q 180 687 180 635 q 180 625 179 612 q 177 590 174 559 q 170 528 161 459 q 140 294 135 199 q 134 178 134 150 q 134 124 135 108 q 137 84 140 69 q 141 61 144 52 q 147 43 149 39 l 152 35 l 162 35 q 169 36 182 36 l 190 36 q 208 38 253 38 q 267 38 275 38 q 284 38 289 38 q 294 38 297 38 q 299 38 301 38 q 302 38 303 37 q 308 34 308 29 q 308 23 303 20 q 300 18 297 18 q 294 18 292 20 q 292 21 291 22 l 291 22 q 291 23 287 24 q 284 25 279 26 q 274 27 270 27 q 257 28 240 28 l 227 28 q 201 28 174 26 q 169 26 166 26 q 164 25 162 25 q 161 24 160 24 q 156 21 152 21 q 149 21 146 22 l 143 23 l 128 21 q 113 20 96 17 q 79 14 64 11 q 59 10 55 9 q 45 7 39 6 q 33 5 30 4 q 26 3 25 3 q 24 3 23 3 l 20 3 z"},"5":{"x_min":0,"x_max":503,"ha":503,"o":"m 141 15 q 137 16 134 18 q 131 20 130 22 q 130 23 130 24 q 130 25 130 26 q 132 28 135 28 q 137 28 139 27 q 142 25 146 25 q 160 25 195 42 q 239 65 277 97 q 338 148 375 215 q 403 266 403 305 q 403 310 402 314 q 400 345 379 365 q 348 395 293 395 q 271 395 245 390 q 204 382 136 353 q 111 341 98 336 q 86 331 76 329 q 66 327 58 327 q 28 327 19 359 q 17 366 17 374 q 17 382 17 386 q 17 393 18 399 q 26 460 67 546 q 68 549 69 551 l 79 570 q 81 573 83 577 q 84 581 86 584 q 90 592 97 604 q 104 616 111 626 q 118 637 121 642 q 122 643 122 643 q 122 644 122 645 l 113 644 q 104 642 91 640 q 71 637 60 636 q 49 634 43 634 q 37 633 31 633 q 27 633 24 633 q 22 633 21 634 q 20 634 19 634 q 15 637 15 639 q 15 641 15 642 q 15 645 17 647 q 19 649 26 650 q 33 651 36 651 q 39 651 41 650 q 42 650 43 650 q 44 649 47 649 q 50 649 55 650 q 61 651 70 652 q 79 653 93 655 q 95 655 98 655 l 134 660 l 139 665 q 159 686 175 686 q 182 686 188 682 q 194 677 196 670 q 196 668 197 667 q 197 667 198 667 l 200 667 q 202 667 207 667 q 246 672 307 676 q 368 680 422 682 q 432 683 442 683 q 452 684 459 685 q 468 685 473 685 q 478 685 480 685 q 483 684 485 683 q 489 680 489 674 q 489 670 486 667 q 482 665 475 664 q 472 663 471 663 q 470 663 469 663 l 468 663 q 467 663 466 664 q 465 664 464 665 q 463 665 463 666 q 463 667 461 668 q 459 668 449 668 q 443 668 437 669 l 430 669 q 362 669 245 659 q 237 658 230 658 q 222 657 216 656 q 210 656 207 655 q 203 655 200 655 q 198 654 197 654 q 196 654 195 653 l 195 653 q 195 652 194 649 q 193 646 192 643 q 190 635 189 632 q 188 630 186 630 q 184 629 182 629 l 181 629 q 177 629 175 633 q 172 636 172 640 l 172 642 q 171 641 166 635 q 161 629 155 622 q 148 614 144 607 q 104 550 74 489 q 45 428 38 387 q 38 381 38 376 l 38 371 q 38 362 40 357 q 43 345 62 345 q 69 345 77 347 q 86 349 101 354 q 117 360 145 371 q 198 391 237 399 q 254 402 264 403 q 274 404 292 404 q 308 404 317 403 q 326 402 337 399 q 400 382 416 327 q 418 314 418 300 q 418 285 415 269 q 387 164 280 78 q 249 55 210 36 q 166 14 147 14 q 143 14 141 15 z"}}}
